<svg xmlns="http://www.w3.org/2000/svg" xmlns:xlink="http://www.w3.org/1999/xlink" xmlns:lucid="lucid" width="1370" height="1123"><g transform="translate(-288 -305)" lucid:page-tab-id="0_0"><path d="M634.1 754.5c24.3 0 44 17.9 44 40s-19.7 40-44 40h-132c-24.3 0-44-17.9-44-40s19.7-40 44-40z" stroke="#333" stroke-width="2" fill="#fff"/><use xlink:href="#a" transform="matrix(1,0,0,1,463.08818625003335,759.4999999998836) translate(27.57499999999999 38.6)"/><path d="M1200 734.5l60 60-60 60-60-60z" stroke="#333" stroke-width="2" fill="#fff"/><use xlink:href="#b" transform="matrix(1,0,0,1,1145,739.4999999998836) translate(18.125 47.8)"/><use xlink:href="#c" transform="matrix(1,0,0,1,1145,739.4999999998836) translate(61.975 47.8)"/><use xlink:href="#d" transform="matrix(1,0,0,1,1145,739.4999999998836) translate(27.025 69.4)"/><path d="M1490 508c0 6.63-26.86 12-60 12s-60-5.37-60-12v-96c0-6.63 26.86-12 60-12s60 5.37 60 12z" stroke="#333" stroke-width="2" fill="#fff"/><path d="M1490 412c0 6.63-26.86 12-60 12s-60-5.37-60-12" stroke="#333" stroke-width="2" fill="none"/><use xlink:href="#e" transform="matrix(1,0,0,1,1375,429) translate(11.049999999999997 35.8)"/><use xlink:href="#f" transform="matrix(1,0,0,1,1375,429) translate(64 35.8)"/><use xlink:href="#g" transform="matrix(1,0,0,1,1375,429) translate(30.049999999999997 57.4)"/><path d="M508.57 675.4h120v79.1h-120z" stroke="#333" stroke-width="2" fill="#ffbbb1"/><use xlink:href="#h" transform="matrix(1,0,0,1,513.5668792306327,680.3999999998837) translate(16.870370370370367 13.666666666666668)"/><use xlink:href="#i" transform="matrix(1,0,0,1,513.5668792306327,680.3999999998837) translate(35.74074074074074 29.666666666666668)"/><use xlink:href="#j" transform="matrix(1,0,0,1,513.5668792306327,680.3999999998837) translate(40.94444444444444 45.66666666666667)"/><use xlink:href="#k" transform="matrix(1,0,0,1,513.5668792306327,680.3999999998837) translate(32.05555555555556 61.66666666666667)"/><path d="M488.57 400h160v120h-160z" stroke="#333" stroke-width="2" fill="#fff"/><use xlink:href="#l" transform="matrix(1,0,0,1,493.5668792306327,405) translate(56.05 58.6)"/><path d="M569.57 655.9h-2v-77.88h2zm0-99.48h-2V522h2z" fill="#333"/><path d="M569.57 522.03h-2V521h2zM568.57 671.16l-4.64-14.26h9.27z" fill="#333"/><path d="M568.57 674.4l-6-18.5h12zm-3.26-16.5l3.27 10.03 3.26-10.03z" fill="#333"/><use xlink:href="#m" transform="matrix(1,0,0,1,513.1168792306327,556.4167921807426) translate(0 14.4)"/><use xlink:href="#n" transform="matrix(1,0,0,1,513.1168792306327,556.4167921807426) translate(62.95 14.4)"/><path d="M680.1 794.5h27c6.62 0 12-5.37 12-12V645.95c0-6.63 5.36-12 12-12H888c6.63 0 12 5.37 12 12v9.5" stroke="#333" stroke-width="2" fill="none"/><path d="M680.1 795.5h-1.07l.06-1-.06-1h1.07z" fill="#333"/><path d="M900 670.7l-4.64-14.25h9.28z" stroke="#333" stroke-width="2" fill="#333"/><path d="M900 913.8v27c0 6.63-5.37 12-12 12H731.1c-6.64 0-12-5.37-12-12V806.5c0-6.63-5.38-12-12-12h-9.5" stroke="#333" stroke-width="2" fill="none"/><path d="M901 913.83h-2v-1.03h2z" fill="#333"/><path d="M682.33 794.5l14.26-4.64v9.28z" stroke="#333" stroke-width="2" fill="#333"/><path d="M1042 795.4h78.98" stroke="#333" stroke-width="2" fill="none"/><path d="M1042.03 796.4h-1.07l.04-1-.03-1h1.06z" fill="#333"/><path d="M1136.25 795.4l-14.27 4.64v-9.28z" stroke="#333" stroke-width="2" fill="#333"/><path d="M1201 883.98l-.43 3.3-1.3 3.13-2.07 2.7-2.7 2.1-3.13 1.28-3.3.43h-83.15v-2h83l2.93-.37 2.64-1.1 2.27-1.74 1.76-2.3 1.1-2.63.37-2.92V856.9h2zm-128.63-89.15l3.13 1.3 2.7 2.07 2.07 2.7 1.3 3.13.43 3.3v76.52l.17 1.26h-2.02L1080 884v-76.5l-.38-2.93-1.1-2.64-1.75-2.27-2.28-1.76-2.65-1.1-2.9-.37h-9.45v-2h9.57z" fill="#333"/><path d="M1201 856.94h-2v-2.03l1 1 1-1zM1058.5 800.04l-14.26-4.64 14.26-4.64z" fill="#333"/><path d="M1059.5 801.4l-18.5-6 18.5-6zm-12.03-6l10.03 3.26v-6.52z" fill="#333"/><use xlink:href="#o" transform="matrix(1,0,0,1,1075.5680680110986,885.1142135622567) translate(0 14.4)"/><path d="M1278.76 795.5h-16.35v-2h16.36z" fill="#333"/><path d="M1262.44 795.5h-2.03l1-1-1-1h2.04zM1315.8 794.05l-14.1 4.58v-9.16z" fill="#333"/><path d="M1319.05 794.05l-17.34 5.63v-11.26zm-16.5 3.26l10.03-3.25-10.03-3.26z" fill="#333"/><use xlink:href="#p" transform="matrix(1,0,0,1,1278.7568384209521,783.4749999998836) translate(0 14.4)"/><path d="M1496 754.95c24.3 0 44 17.9 44 40s-19.7 40-44 40h-132c-24.3 0-44-17.9-44-40s19.7-40 44-40z" stroke="#333" stroke-width="2" fill="#fff"/><use xlink:href="#q" transform="matrix(1,0,0,1,1325,759.9499999998836) translate(47.599999999999994 38.6)"/><path d="M1360 834.95h140v76.4h-140z" stroke="#333" stroke-width="2" fill="#c1e4f7"/><use xlink:href="#r" transform="matrix(1,0,0,1,1365,839.9499999998836) translate(38.03703703703704 20.166666666666664)"/><use xlink:href="#s" transform="matrix(1,0,0,1,1365,839.9499999998836) translate(11.592592592592581 36.166666666666664)"/><use xlink:href="#t" transform="matrix(1,0,0,1,1365,839.9499999998836) translate(49.74074074074073 36.166666666666664)"/><use xlink:href="#u" transform="matrix(1,0,0,1,1365,839.9499999998836) translate(82.22222222222223 36.166666666666664)"/><use xlink:href="#v" transform="matrix(1,0,0,1,1365,839.9499999998836) translate(108.07407407407408 36.166666666666664)"/><use xlink:href="#w" transform="matrix(1,0,0,1,1365,839.9499999998836) translate(32.11111111111111 52.16666666666667)"/><use xlink:href="#x" transform="matrix(1,0,0,1,1365,839.9499999998836) translate(60.18518518518519 52.16666666666667)"/><path d="M1431 752.95h-2v-118.7h2zm0-140.3h-2V539.5h2z" fill="#333"/><path d="M1431 753.95h-2v-1.03h2zM1434.64 538.5h-9.28l4.64-14.26z" fill="#333"/><path d="M1436 539.5h-12l6-18.5zm-9.26-2h6.52l-3.26-10.03z" fill="#333"/><path d="M1431 735.45h-2v-101.2h2zm0-122.8h-2V522h2z" fill="#333"/><path d="M1430 521l1-.03v1.06h-2v-1.07zM1430 750.7l-4.64-14.25h9.28z" fill="#333"/><path d="M1430 753.95l-6-18.5h12zm-3.26-16.5l3.26 10.03 3.26-10.03z" fill="#333"/><use xlink:href="#y" transform="matrix(1,0,0,1,1366.575,612.6480967647926) translate(0 14.4)"/><use xlink:href="#z" transform="matrix(1,0,0,1,1366.575,612.6480967647926) translate(81.9 14.4)"/><path d="M498.57 835.4h140v122h-140z" stroke="#333" stroke-width="2" fill="#c1e4f7"/><use xlink:href="#r" transform="matrix(1,0,0,1,503.5668792306327,840.3999999998837) translate(38.03703703703704 10.666666666666668)"/><use xlink:href="#A" transform="matrix(1,0,0,1,503.5668792306327,840.3999999998837) translate(4.722222222222214 26.666666666666668)"/><use xlink:href="#B" transform="matrix(1,0,0,1,503.5668792306327,840.3999999998837) translate(24.648148148148145 26.666666666666668)"/><use xlink:href="#C" transform="matrix(1,0,0,1,503.5668792306327,840.3999999998837) translate(39.46296296296296 26.666666666666668)"/><use xlink:href="#D" transform="matrix(1,0,0,1,503.5668792306327,840.3999999998837) translate(109.75925925925927 26.666666666666668)"/><use xlink:href="#E" transform="matrix(1,0,0,1,503.5668792306327,840.3999999998837) translate(22.07407407407407 42.66666666666667)"/><use xlink:href="#F" transform="matrix(1,0,0,1,503.5668792306327,840.3999999998837) translate(54.666666666666664 42.66666666666667)"/><use xlink:href="#G" transform="matrix(1,0,0,1,503.5668792306327,840.3999999998837) translate(84.2962962962963 42.66666666666667)"/><use xlink:href="#H" transform="matrix(1,0,0,1,503.5668792306327,840.3999999998837) translate(0 58.66666666666667)"/><use xlink:href="#I" transform="matrix(1,0,0,1,503.5668792306327,840.3999999998837) translate(14.814814814814817 58.66666666666667)"/><use xlink:href="#J" transform="matrix(1,0,0,1,503.5668792306327,840.3999999998837) translate(64.40740740740742 58.66666666666667)"/><use xlink:href="#K" transform="matrix(1,0,0,1,503.5668792306327,840.3999999998837) translate(0 74.66666666666667)"/><use xlink:href="#L" transform="matrix(1,0,0,1,503.5668792306327,840.3999999998837) translate(14.814814814814817 74.66666666666667)"/><use xlink:href="#M" transform="matrix(1,0,0,1,503.5668792306327,840.3999999998837) translate(82.85185185185185 74.66666666666667)"/><use xlink:href="#N" transform="matrix(1,0,0,1,503.5668792306327,840.3999999998837) translate(0 90.66666666666667)"/><use xlink:href="#t" transform="matrix(1,0,0,1,503.5668792306327,840.3999999998837) translate(14.814814814814817 90.66666666666667)"/><use xlink:href="#O" transform="matrix(1,0,0,1,503.5668792306327,840.3999999998837) translate(47.296296296296305 90.66666666666667)"/><use xlink:href="#P" transform="matrix(1,0,0,1,503.5668792306327,840.3999999998837) translate(0 106.66666666666667)"/><use xlink:href="#Q" transform="matrix(1,0,0,1,503.5668792306327,840.3999999998837) translate(14.814814814814817 106.66666666666667)"/><use xlink:href="#R" transform="matrix(1,0,0,1,503.5668792306327,840.3999999998837) translate(77.66666666666666 106.66666666666667)"/><path d="M984 755.4c30.93 0 56 17.9 56 40s-25.07 40-56 40H816c-30.93 0-56-17.9-56-40s25.07-40 56-40z" stroke="#333" stroke-width="2" fill="#fff"/><g><use xlink:href="#S" transform="matrix(1,0,0,1,765,760.3999999998837) translate(20.125 27.799999999999997)"/><use xlink:href="#T" transform="matrix(1,0,0,1,765,760.3999999998837) translate(110.5 49.4)"/></g><path d="M830 674.95h140v80H830z" stroke="#333" stroke-width="2" fill="#ffbbb1"/><g><use xlink:href="#h" transform="matrix(1,0,0,1,835,679.9499999998836) translate(26.870370370370367 13.666666666666668)"/><use xlink:href="#i" transform="matrix(1,0,0,1,835,679.9499999998836) translate(45.74074074074074 29.666666666666668)"/><use xlink:href="#j" transform="matrix(1,0,0,1,835,679.9499999998836) translate(50.94444444444444 45.66666666666667)"/><use xlink:href="#k" transform="matrix(1,0,0,1,835,679.9499999998836) translate(42.05555555555556 61.66666666666667)"/></g><path d="M830 835.4h140v76.4H830z" stroke="#333" stroke-width="2" fill="#c1e4f7"/><g><use xlink:href="#r" transform="matrix(1,0,0,1,835,840.3999999998837) translate(38.03703703703704 12.166666666666668)"/><use xlink:href="#U" transform="matrix(1,0,0,1,835,840.3999999998837) translate(27.629629629629633 28.166666666666668)"/><use xlink:href="#V" transform="matrix(1,0,0,1,835,840.3999999998837) translate(91.25925925925927 28.166666666666668)"/><use xlink:href="#W" transform="matrix(1,0,0,1,835,840.3999999998837) translate(7.666666666666671 44.16666666666667)"/><use xlink:href="#X" transform="matrix(1,0,0,1,835,840.3999999998837) translate(65.37037037037038 44.16666666666667)"/><use xlink:href="#Y" transform="matrix(1,0,0,1,835,840.3999999998837) translate(96.4074074074074 44.16666666666667)"/><use xlink:href="#Z" transform="matrix(1,0,0,1,835,840.3999999998837) translate(38.74074074074073 60.16666666666667)"/><use xlink:href="#R" transform="matrix(1,0,0,1,835,840.3999999998837) translate(64.66666666666666 60.16666666666667)"/></g><path d="M634.1 1159.1c24.3 0 44 17.9 44 40s-19.7 40-44 40h-132c-24.3 0-44-17.9-44-40s19.7-40 44-40z" stroke="#333" stroke-width="2" fill="#fff"/><g><use xlink:href="#aa" transform="matrix(1,0,0,1,463.08818625003335,1164.1) translate(49.574999999999996 38.6)"/></g><path d="M508.57 1080h120v79.1h-120z" stroke="#333" stroke-width="2" fill="#ffbbb1"/><g><use xlink:href="#h" transform="matrix(1,0,0,1,513.5668792306327,1085) translate(16.870370370370367 21.666666666666664)"/><use xlink:href="#ab" transform="matrix(1,0,0,1,513.5668792306327,1085) translate(15.055555555555557 37.666666666666664)"/><use xlink:href="#B" transform="matrix(1,0,0,1,513.5668792306327,1085) translate(52.833333333333336 37.666666666666664)"/><use xlink:href="#ac" transform="matrix(1,0,0,1,513.5668792306327,1085) translate(67.64814814814815 37.666666666666664)"/><use xlink:href="#ad" transform="matrix(1,0,0,1,513.5668792306327,1085) translate(11.407407407407405 53.66666666666667)"/><use xlink:href="#ae" transform="matrix(1,0,0,1,513.5668792306327,1085) translate(81.66666666666667 53.66666666666667)"/></g><path d="M498.57 1240h140v60h-140z" stroke="#333" stroke-width="2" fill="#c1e4f7"/><g><use xlink:href="#r" transform="matrix(1,0,0,1,503.5668792306327,1245) translate(38.03703703703704 19.666666666666668)"/><use xlink:href="#af" transform="matrix(1,0,0,1,503.5668792306327,1245) translate(50.18518518518518 35.66666666666667)"/></g><path d="M568.57 959.4v101.1" stroke="#333" stroke-width="2" fill="none"/><path d="M569.57 959.43h-2v-1.03h2z" fill="#333"/><path d="M568.57 1075.76l-4.64-14.26h9.27z" stroke="#333" stroke-width="2" fill="#333"/><defs><path fill="#333" d="M210-169c-67 3-38 105-44 169h-31v-121c0-29-5-50-35-48C34-165 62-65 56 0H25l-1-190h30c1 10-1 24 2 32 10-44 99-50 107 0 11-21 27-35 58-36 85-2 47 119 55 194h-31v-121c0-29-5-49-35-48" id="ag"/><path fill="#333" d="M141-36C126-15 110 5 73 4 37 3 15-17 15-53c-1-64 63-63 125-63 3-35-9-54-41-54-24 1-41 7-42 31l-33-3c5-37 33-52 76-52 45 0 72 20 72 64v82c-1 20 7 32 28 27v20c-31 9-61-2-59-35zM48-53c0 20 12 33 32 33 41-3 63-29 60-74-43 2-92-5-92 41" id="ah"/><path fill="#333" d="M143 0L79-87 56-68V0H24v-261h32v163l83-92h37l-77 82L181 0h-38" id="ai"/><path fill="#333" d="M100-194c63 0 86 42 84 106H49c0 40 14 67 53 68 26 1 43-12 49-29l28 8c-11 28-37 45-77 45C44 4 14-33 15-96c1-61 26-98 85-98zm52 81c6-60-76-77-97-28-3 7-6 17-6 28h103" id="aj"/><path fill="#333" d="M-5 72V49h209v23H-5" id="ak"/><path fill="#333" d="M59-47c-2 24 18 29 38 22v24C64 9 27 4 27-40v-127H5v-23h24l9-43h21v43h35v23H59v120" id="al"/><path fill="#333" d="M24-231v-30h32v30H24zM24 0v-190h32V0H24" id="am"/><path fill="#333" d="M24 0v-261h32V0H24" id="an"/><path fill="#333" d="M135-143c-3-34-86-38-87 0 15 53 115 12 119 90S17 21 10-45l28-5c4 36 97 45 98 0-10-56-113-15-118-90-4-57 82-63 122-42 12 7 21 19 24 35" id="ao"/><path fill="#333" d="M85-194c31 0 48 13 60 33l-1-100h32l1 261h-30c-2-10 0-23-3-31C134-8 116 4 85 4 32 4 16-35 15-94c0-66 23-100 70-100zm9 24c-40 0-46 34-46 75 0 40 6 74 45 74 42 0 51-32 51-76 0-42-9-74-50-73" id="ap"/><g id="a"><use transform="matrix(0.05,0,0,0.05,0,0)" xlink:href="#ag"/><use transform="matrix(0.05,0,0,0.05,14.950000000000001,0)" xlink:href="#ah"/><use transform="matrix(0.05,0,0,0.05,24.950000000000003,0)" xlink:href="#ai"/><use transform="matrix(0.05,0,0,0.05,33.95,0)" xlink:href="#aj"/><use transform="matrix(0.05,0,0,0.05,43.95,0)" xlink:href="#ak"/><use transform="matrix(0.05,0,0,0.05,53.95,0)" xlink:href="#al"/><use transform="matrix(0.05,0,0,0.05,58.95,0)" xlink:href="#am"/><use transform="matrix(0.05,0,0,0.05,62.900000000000006,0)" xlink:href="#an"/><use transform="matrix(0.05,0,0,0.05,66.85000000000001,0)" xlink:href="#aj"/><use transform="matrix(0.05,0,0,0.05,76.85000000000001,0)" xlink:href="#ao"/><use transform="matrix(0.05,0,0,0.05,85.85000000000001,0)" xlink:href="#ak"/><use transform="matrix(0.05,0,0,0.05,95.85000000000001,0)" xlink:href="#ap"/><use transform="matrix(0.05,0,0,0.05,105.85000000000001,0)" xlink:href="#ah"/><use transform="matrix(0.05,0,0,0.05,115.85000000000001,0)" xlink:href="#al"/><use transform="matrix(0.05,0,0,0.05,120.85000000000001,0)" xlink:href="#ah"/><use transform="matrix(0.05,0,0,0.05,130.85000000000002,0)" xlink:href="#ao"/><use transform="matrix(0.05,0,0,0.05,139.85000000000002,0)" xlink:href="#aj"/><use transform="matrix(0.05,0,0,0.05,149.85000000000002,0)" xlink:href="#al"/></g><path fill="#333" d="M232-93c-1 65-40 97-104 97C67 4 28-28 28-90v-158h33c8 89-33 224 67 224 102 0 64-133 71-224h33v155" id="aq"/><path fill="#333" d="M127-220V0H93v-220H8v-28h204v28h-85" id="ar"/><path fill="#333" d="M240 0l2-218c-23 76-54 145-80 218h-23L58-218 59 0H30v-248h44l77 211c21-75 51-140 76-211h43V0h-30" id="as"/><g id="b"><use transform="matrix(0.05,0,0,0.05,0,0)" xlink:href="#aq"/><use transform="matrix(0.05,0,0,0.05,12.950000000000001,0)" xlink:href="#ar"/><use transform="matrix(0.05,0,0,0.05,23.900000000000002,0)" xlink:href="#as"/></g><path fill="#333" d="M177-190C167-65 218 103 67 71c-23-6-38-20-44-43l32-5c15 47 100 32 89-28v-30C133-14 115 1 83 1 29 1 15-40 15-95c0-56 16-97 71-98 29-1 48 16 59 35 1-10 0-23 2-32h30zM94-22c36 0 50-32 50-73 0-42-14-75-50-75-39 0-46 34-46 75s6 73 46 73" id="at"/><path fill="#333" d="M114-163C36-179 61-72 57 0H25l-1-190h30c1 12-1 29 2 39 6-27 23-49 58-41v29" id="au"/><g id="c"><use transform="matrix(0.05,0,0,0.05,0,0)" xlink:href="#at"/><use transform="matrix(0.05,0,0,0.05,10,0)" xlink:href="#au"/><use transform="matrix(0.05,0,0,0.05,15.949999999999998,0)" xlink:href="#am"/><use transform="matrix(0.05,0,0,0.05,19.9,0)" xlink:href="#ap"/></g><path fill="#333" d="M141 0L90-78 38 0H4l68-98-65-92h35l48 74 47-74h35l-64 92 68 98h-35" id="av"/><path fill="#333" d="M103-251c84 0 111 97 45 133-19 10-37 24-39 52H78c0-63 77-55 77-114 0-30-21-42-52-43-32 0-53 17-56 46l-32-2c7-45 34-72 88-72zM77 0v-35h34V0H77" id="aw"/><g id="d"><use transform="matrix(0.05,0,0,0.05,0,0)" xlink:href="#aj"/><use transform="matrix(0.05,0,0,0.05,10,0)" xlink:href="#av"/><use transform="matrix(0.05,0,0,0.05,19,0)" xlink:href="#am"/><use transform="matrix(0.05,0,0,0.05,22.95,0)" xlink:href="#ao"/><use transform="matrix(0.05,0,0,0.05,31.950000000000003,0)" xlink:href="#al"/><use transform="matrix(0.05,0,0,0.05,36.95,0)" xlink:href="#ao"/><use transform="matrix(0.05,0,0,0.05,45.95,0)" xlink:href="#aw"/></g><path fill="#333" d="M190 0L58-211 59 0H30v-248h39L202-35l-2-213h31V0h-41" id="ax"/><path fill="#333" d="M205 0l-28-72H64L36 0H1l101-248h38L239 0h-34zm-38-99l-47-123c-12 45-31 82-46 123h93" id="ay"/><path fill="#333" d="M185-189c-5-48-123-54-124 2 14 75 158 14 163 119 3 78-121 87-175 55-17-10-28-26-33-46l33-7c5 56 141 63 141-1 0-78-155-14-162-118-5-82 145-84 179-34 5 7 8 16 11 25" id="az"/><g id="e"><use transform="matrix(0.05,0,0,0.05,0,0)" xlink:href="#ax"/><use transform="matrix(0.05,0,0,0.05,12.950000000000001,0)" xlink:href="#ay"/><use transform="matrix(0.05,0,0,0.05,24.950000000000003,0)" xlink:href="#az"/><use transform="matrix(0.05,0,0,0.05,36.95,0)" xlink:href="#ay"/></g><path fill="#333" d="M197 0v-115H63V0H30v-248h33v105h134v-105h34V0h-34" id="aA"/><path fill="#333" d="M30 0v-248h33v221h125V0H30" id="aB"/><g id="f"><use transform="matrix(0.05,0,0,0.05,0,0)" xlink:href="#aA"/><use transform="matrix(0.05,0,0,0.05,12.950000000000001,0)" xlink:href="#aB"/><use transform="matrix(0.05,0,0,0.05,22.950000000000003,0)" xlink:href="#az"/></g><path fill="#333" d="M108 0H70L1-190h34L89-25l56-165h34" id="aC"/><g id="g"><use transform="matrix(0.05,0,0,0.05,0,0)" xlink:href="#ao"/><use transform="matrix(0.05,0,0,0.05,9,0)" xlink:href="#aj"/><use transform="matrix(0.05,0,0,0.05,19,0)" xlink:href="#au"/><use transform="matrix(0.05,0,0,0.05,24.95,0)" xlink:href="#aC"/><use transform="matrix(0.05,0,0,0.05,33.95,0)" xlink:href="#aj"/><use transform="matrix(0.05,0,0,0.05,43.95,0)" xlink:href="#au"/></g><path fill="#333" d="M24-248c93 1 206-16 204 79-1 75-69 88-152 82V0H24v-248zm52 121c47 0 100 7 100-41 0-47-54-39-100-39v80" id="aD"/><path fill="#333" d="M133-34C117-15 103 5 69 4 32 3 11-16 11-54c-1-60 55-63 116-61 1-26-3-47-28-47-18 1-26 9-28 27l-52-2c7-38 36-58 82-57s74 22 75 68l1 82c-1 14 12 18 25 15v27c-30 8-71 5-69-32zm-48 3c29 0 43-24 42-57-32 0-66-3-65 30 0 17 8 27 23 27" id="aE"/><path fill="#333" d="M135-150c-39-12-60 13-60 57V0H25l-1-190h47c2 13-1 29 3 40 6-28 27-53 61-41v41" id="aF"/><path fill="#333" d="M220-157c-53 9-28 100-34 157h-49v-107c1-27-5-49-29-50C55-147 81-57 75 0H25l-1-190h47c2 12-1 28 3 38 10-53 101-56 108 0 13-22 24-43 59-42 82 1 51 116 57 194h-49v-107c-1-25-5-48-29-50" id="aG"/><path fill="#333" d="M185-48c-13 30-37 53-82 52C43 2 14-33 14-96s30-98 90-98c62 0 83 45 84 108H66c0 31 8 55 39 56 18 0 30-7 34-22zm-45-69c5-46-57-63-70-21-2 6-4 13-4 21h74" id="aH"/><path fill="#333" d="M115-3C79 11 28 4 28-45v-112H4v-33h27l15-45h31v45h36v33H77v99c-1 23 16 31 38 25v30" id="aI"/><path fill="#333" d="M137-138c1-29-70-34-71-4 15 46 118 7 119 86 1 83-164 76-172 9l43-7c4 19 20 25 44 25 33 8 57-30 24-41C81-84 22-81 20-136c-2-80 154-74 161-7" id="aJ"/><path fill="#333" d="M33-154v-36h34v36H33zM33 0v-36h34V0H33" id="aK"/><g id="h"><use transform="matrix(0.03703703703703704,0,0,0.03703703703703704,0,0)" xlink:href="#aD"/><use transform="matrix(0.03703703703703704,0,0,0.03703703703703704,8.88888888888889,0)" xlink:href="#aE"/><use transform="matrix(0.03703703703703704,0,0,0.03703703703703704,16.296296296296298,0)" xlink:href="#aF"/><use transform="matrix(0.03703703703703704,0,0,0.03703703703703704,21.481481481481485,0)" xlink:href="#aE"/><use transform="matrix(0.03703703703703704,0,0,0.03703703703703704,28.888888888888893,0)" xlink:href="#aG"/><use transform="matrix(0.03703703703703704,0,0,0.03703703703703704,40.74074074074075,0)" xlink:href="#aH"/><use transform="matrix(0.03703703703703704,0,0,0.03703703703703704,48.14814814814815,0)" xlink:href="#aI"/><use transform="matrix(0.03703703703703704,0,0,0.03703703703703704,52.55555555555556,0)" xlink:href="#aH"/><use transform="matrix(0.03703703703703704,0,0,0.03703703703703704,59.96296296296296,0)" xlink:href="#aF"/><use transform="matrix(0.03703703703703704,0,0,0.03703703703703704,65.14814814814815,0)" xlink:href="#aJ"/><use transform="matrix(0.03703703703703704,0,0,0.03703703703703704,72.55555555555556,0)" xlink:href="#aK"/></g><path fill="#333" d="M106-169C34-169 62-67 57 0H25v-261h32l-1 103c12-21 28-36 61-36 89 0 53 116 60 194h-32v-121c2-32-8-49-39-48" id="aL"/><path fill="#333" d="M115-194c55 1 70 41 70 98S169 2 115 4C84 4 66-9 55-30l1 105H24l-1-265h31l2 30c10-21 28-34 59-34zm-8 174c40 0 45-34 45-75s-6-73-45-74c-42 0-51 32-51 76 0 43 10 73 51 73" id="aM"/><g id="i"><use transform="matrix(0.03703703703703704,0,0,0.03703703703703704,0,0)" xlink:href="#az"/><use transform="matrix(0.03703703703703704,0,0,0.03703703703703704,8.88888888888889,0)" xlink:href="#aL"/><use transform="matrix(0.03703703703703704,0,0,0.03703703703703704,16.296296296296298,0)" xlink:href="#ah"/><use transform="matrix(0.03703703703703704,0,0,0.03703703703703704,23.703703703703706,0)" xlink:href="#aM"/><use transform="matrix(0.03703703703703704,0,0,0.03703703703703704,31.111111111111114,0)" xlink:href="#aj"/></g><path fill="#333" d="M30-248c118-7 216 8 213 122C240-48 200 0 122 0H30v-248zM63-27c89 8 146-16 146-99s-60-101-146-95v194" id="aN"/><g id="j"><use transform="matrix(0.03703703703703704,0,0,0.03703703703703704,0,0)" xlink:href="#aN"/><use transform="matrix(0.03703703703703704,0,0,0.03703703703703704,9.592592592592593,0)" xlink:href="#ah"/><use transform="matrix(0.03703703703703704,0,0,0.03703703703703704,17,0)" xlink:href="#al"/><use transform="matrix(0.03703703703703704,0,0,0.03703703703703704,20.703703703703702,0)" xlink:href="#aj"/></g><path fill="#333" d="M30-248c87 1 191-15 191 75 0 78-77 80-158 76V0H30v-248zm33 125c57 0 124 11 124-50 0-59-68-47-124-48v98" id="aO"/><path fill="#333" d="M100-194c62-1 85 37 85 99 1 63-27 99-86 99S16-35 15-95c0-66 28-99 85-99zM99-20c44 1 53-31 53-75 0-43-8-75-51-75s-53 32-53 75 10 74 51 75" id="aP"/><path fill="#333" d="M84 4C-5 8 30-112 23-190h32v120c0 31 7 50 39 49 72-2 45-101 50-169h31l1 190h-30c-1-10 1-25-2-33-11 22-28 36-60 37" id="aQ"/><path fill="#333" d="M96-169c-40 0-48 33-48 73s9 75 48 75c24 0 41-14 43-38l32 2c-6 37-31 61-74 61-59 0-76-41-82-99-10-93 101-131 147-64 4 7 5 14 7 22l-32 3c-4-21-16-35-41-35" id="aR"/><g id="k"><use transform="matrix(0.03703703703703704,0,0,0.03703703703703704,0,0)" xlink:href="#aO"/><use transform="matrix(0.03703703703703704,0,0,0.03703703703703704,8.88888888888889,0)" xlink:href="#au"/><use transform="matrix(0.03703703703703704,0,0,0.03703703703703704,13.296296296296298,0)" xlink:href="#aP"/><use transform="matrix(0.03703703703703704,0,0,0.03703703703703704,20.703703703703706,0)" xlink:href="#ap"/><use transform="matrix(0.03703703703703704,0,0,0.03703703703703704,28.111111111111114,0)" xlink:href="#aQ"/><use transform="matrix(0.03703703703703704,0,0,0.03703703703703704,35.51851851851852,0)" xlink:href="#aR"/><use transform="matrix(0.03703703703703704,0,0,0.03703703703703704,42.18518518518519,0)" xlink:href="#al"/></g><g id="l"><use transform="matrix(0.05,0,0,0.05,0,0)" xlink:href="#aq"/><use transform="matrix(0.05,0,0,0.05,12.950000000000001,0)" xlink:href="#ao"/><use transform="matrix(0.05,0,0,0.05,21.950000000000003,0)" xlink:href="#aj"/><use transform="matrix(0.05,0,0,0.05,31.950000000000003,0)" xlink:href="#au"/></g><g id="m"><use transform="matrix(0.05,0,0,0.05,0,0)" xlink:href="#aR"/><use transform="matrix(0.05,0,0,0.05,9,0)" xlink:href="#aQ"/><use transform="matrix(0.05,0,0,0.05,19,0)" xlink:href="#ao"/><use transform="matrix(0.05,0,0,0.05,28,0)" xlink:href="#al"/><use transform="matrix(0.05,0,0,0.05,33,0)" xlink:href="#aP"/><use transform="matrix(0.05,0,0,0.05,43,0)" xlink:href="#ag"/></g><path fill="#333" d="M117-194c89-4 53 116 60 194h-32v-121c0-31-8-49-39-48C34-167 62-67 57 0H25l-1-190h30c1 10-1 24 2 32 11-22 29-35 61-36" id="aS"/><g id="n"><use transform="matrix(0.05,0,0,0.05,0,0)" xlink:href="#am"/><use transform="matrix(0.05,0,0,0.05,3.95,0)" xlink:href="#aS"/><use transform="matrix(0.05,0,0,0.05,13.949999999999998,0)" xlink:href="#aM"/><use transform="matrix(0.05,0,0,0.05,23.95,0)" xlink:href="#aQ"/><use transform="matrix(0.05,0,0,0.05,33.95,0)" xlink:href="#al"/><use transform="matrix(0.05,0,0,0.05,38.95,0)" xlink:href="#ao"/></g><path fill="#333" d="M137-103V0h-34v-103L8-248h37l75 118 75-118h37" id="aT"/><g id="o"><use transform="matrix(0.05,0,0,0.05,0,0)" xlink:href="#aT"/><use transform="matrix(0.05,0,0,0.05,10.35,0)" xlink:href="#aj"/><use transform="matrix(0.05,0,0,0.05,20.35,0)" xlink:href="#ao"/></g><g id="p"><use transform="matrix(0.05,0,0,0.05,0,0)" xlink:href="#ax"/><use transform="matrix(0.05,0,0,0.05,12.950000000000001,0)" xlink:href="#aP"/></g><path fill="#333" d="M206 0h-36l-40-164L89 0H53L-1-190h32L70-26l43-164h34l41 164 42-164h31" id="aU"/><g id="q"><use transform="matrix(0.05,0,0,0.05,0,0)" xlink:href="#ap"/><use transform="matrix(0.05,0,0,0.05,10,0)" xlink:href="#aP"/><use transform="matrix(0.05,0,0,0.05,20,0)" xlink:href="#aU"/><use transform="matrix(0.05,0,0,0.05,32.95,0)" xlink:href="#aS"/><use transform="matrix(0.05,0,0,0.05,42.95,0)" xlink:href="#an"/><use transform="matrix(0.05,0,0,0.05,46.900000000000006,0)" xlink:href="#aP"/><use transform="matrix(0.05,0,0,0.05,56.900000000000006,0)" xlink:href="#ah"/><use transform="matrix(0.05,0,0,0.05,66.9,0)" xlink:href="#ap"/><use transform="matrix(0.05,0,0,0.05,76.9,0)" xlink:href="#ak"/><use transform="matrix(0.05,0,0,0.05,86.9,0)" xlink:href="#ai"/><use transform="matrix(0.05,0,0,0.05,95.9,0)" xlink:href="#ag"/><use transform="matrix(0.05,0,0,0.05,110.85000000000001,0)" xlink:href="#an"/></g><path fill="#333" d="M240-174c0 40-23 61-54 70L253 0h-59l-57-94H76V0H24v-248c93 4 217-23 216 74zM76-134c48-2 112 12 112-38 0-48-66-32-112-35v73" id="aV"/><path fill="#333" d="M85 4C-2 5 27-109 22-190h50c7 57-23 150 33 157 60-5 35-97 40-157h50l1 190h-47c-2-12 1-28-3-38-12 25-28 42-61 42" id="aW"/><path fill="#333" d="M135-194c87-1 58 113 63 194h-50c-7-57 23-157-34-157-59 0-34 97-39 157H25l-1-190h47c2 12-1 28 3 38 12-26 28-41 61-42" id="aX"/><g id="r"><use transform="matrix(0.03703703703703704,0,0,0.03703703703703704,0,0)" xlink:href="#aV"/><use transform="matrix(0.03703703703703704,0,0,0.03703703703703704,9.592592592592593,0)" xlink:href="#aH"/><use transform="matrix(0.03703703703703704,0,0,0.03703703703703704,17,0)" xlink:href="#aI"/><use transform="matrix(0.03703703703703704,0,0,0.03703703703703704,21.407407407407412,0)" xlink:href="#aW"/><use transform="matrix(0.03703703703703704,0,0,0.03703703703703704,29.51851851851852,0)" xlink:href="#aF"/><use transform="matrix(0.03703703703703704,0,0,0.03703703703703704,34.7037037037037,0)" xlink:href="#aX"/><use transform="matrix(0.03703703703703704,0,0,0.03703703703703704,42.814814814814824,0)" xlink:href="#aJ"/><use transform="matrix(0.03703703703703704,0,0,0.03703703703703704,50.22222222222223,0)" xlink:href="#aK"/></g><path fill="#333" d="M266 0h-40l-56-210L115 0H75L2-248h35L96-30l15-64 43-154h32l59 218 59-218h35" id="aY"/><g id="s"><use transform="matrix(0.03703703703703704,0,0,0.03703703703703704,0,0)" xlink:href="#aY"/><use transform="matrix(0.03703703703703704,0,0,0.03703703703703704,12.296296296296298,0)" xlink:href="#aP"/><use transform="matrix(0.03703703703703704,0,0,0.03703703703703704,19.703703703703706,0)" xlink:href="#au"/><use transform="matrix(0.03703703703703704,0,0,0.03703703703703704,24.111111111111114,0)" xlink:href="#an"/><use transform="matrix(0.03703703703703704,0,0,0.03703703703703704,27.03703703703704,0)" xlink:href="#ap"/></g><g id="t"><use transform="matrix(0.03703703703703704,0,0,0.03703703703703704,0,0)" xlink:href="#aq"/><use transform="matrix(0.03703703703703704,0,0,0.03703703703703704,9.592592592592593,0)" xlink:href="#ar"/><use transform="matrix(0.03703703703703704,0,0,0.03703703703703704,17.703703703703706,0)" xlink:href="#as"/></g><g id="u"><use transform="matrix(0.03703703703703704,0,0,0.03703703703703704,0,0)" xlink:href="#at"/><use transform="matrix(0.03703703703703704,0,0,0.03703703703703704,7.407407407407408,0)" xlink:href="#au"/><use transform="matrix(0.03703703703703704,0,0,0.03703703703703704,11.814814814814817,0)" xlink:href="#am"/><use transform="matrix(0.03703703703703704,0,0,0.03703703703703704,14.740740740740744,0)" xlink:href="#ap"/></g><g id="v"><use transform="matrix(0.03703703703703704,0,0,0.03703703703703704,0,0)" xlink:href="#am"/><use transform="matrix(0.03703703703703704,0,0,0.03703703703703704,2.9259259259259265,0)" xlink:href="#aS"/></g><path fill="#333" d="M33 0v-38h34V0H33" id="aZ"/><g id="w"><use transform="matrix(0.03703703703703704,0,0,0.03703703703703704,0,0)" xlink:href="#aZ"/><use transform="matrix(0.03703703703703704,0,0,0.03703703703703704,3.703703703703704,0)" xlink:href="#ai"/><use transform="matrix(0.03703703703703704,0,0,0.03703703703703704,10.370370370370372,0)" xlink:href="#ag"/><use transform="matrix(0.03703703703703704,0,0,0.03703703703703704,21.44444444444445,0)" xlink:href="#an"/></g><path fill="#333" d="M101-234c-31-9-42 10-38 44h38v23H63V0H32v-167H5v-23h27c-7-52 17-82 69-68v24" id="ba"/><g id="x"><use transform="matrix(0.03703703703703704,0,0,0.03703703703703704,0,0)" xlink:href="#ba"/><use transform="matrix(0.03703703703703704,0,0,0.03703703703703704,3.703703703703704,0)" xlink:href="#aP"/><use transform="matrix(0.03703703703703704,0,0,0.03703703703703704,11.111111111111112,0)" xlink:href="#au"/><use transform="matrix(0.03703703703703704,0,0,0.03703703703703704,15.51851851851852,0)" xlink:href="#ag"/><use transform="matrix(0.03703703703703704,0,0,0.03703703703703704,26.592592592592595,0)" xlink:href="#ah"/><use transform="matrix(0.03703703703703704,0,0,0.03703703703703704,34,0)" xlink:href="#al"/></g><g id="y"><use transform="matrix(0.05,0,0,0.05,0,0)" xlink:href="#ap"/><use transform="matrix(0.05,0,0,0.05,10,0)" xlink:href="#aP"/><use transform="matrix(0.05,0,0,0.05,20,0)" xlink:href="#aU"/><use transform="matrix(0.05,0,0,0.05,32.95,0)" xlink:href="#aS"/><use transform="matrix(0.05,0,0,0.05,42.95,0)" xlink:href="#an"/><use transform="matrix(0.05,0,0,0.05,46.900000000000006,0)" xlink:href="#aP"/><use transform="matrix(0.05,0,0,0.05,56.900000000000006,0)" xlink:href="#ah"/><use transform="matrix(0.05,0,0,0.05,66.9,0)" xlink:href="#ap"/></g><path fill="#333" d="M145-31C134-9 116 4 85 4 32 4 16-35 15-94c0-59 17-99 70-100 32-1 48 14 60 33 0-11-1-24 2-32h30l-1 268h-32zM93-21c41 0 51-33 51-76s-8-73-50-73c-40 0-46 35-46 75s5 74 45 74" id="bb"/><path fill="#333" d="M179-190L93 31C79 59 56 82 12 73V49c39 6 53-20 64-50L1-190h34L92-34l54-156h33" id="bc"/><g id="z"><use transform="matrix(0.05,0,0,0.05,0,0)" xlink:href="#bb"/><use transform="matrix(0.05,0,0,0.05,10,0)" xlink:href="#aQ"/><use transform="matrix(0.05,0,0,0.05,20,0)" xlink:href="#aj"/><use transform="matrix(0.05,0,0,0.05,30,0)" xlink:href="#au"/><use transform="matrix(0.05,0,0,0.05,35.95,0)" xlink:href="#bc"/></g><g id="A"><use transform="matrix(0.03703703703703704,0,0,0.03703703703703704,0,0)" xlink:href="#an"/><use transform="matrix(0.03703703703703704,0,0,0.03703703703703704,2.9259259259259265,0)" xlink:href="#am"/><use transform="matrix(0.03703703703703704,0,0,0.03703703703703704,5.851851851851853,0)" xlink:href="#ao"/><use transform="matrix(0.03703703703703704,0,0,0.03703703703703704,12.51851851851852,0)" xlink:href="#al"/></g><g id="B"><use transform="matrix(0.03703703703703704,0,0,0.03703703703703704,0,0)" xlink:href="#aP"/><use transform="matrix(0.03703703703703704,0,0,0.03703703703703704,7.407407407407408,0)" xlink:href="#ba"/></g><g id="C"><use transform="matrix(0.03703703703703704,0,0,0.03703703703703704,0,0)" xlink:href="#ap"/><use transform="matrix(0.03703703703703704,0,0,0.03703703703703704,7.407407407407408,0)" xlink:href="#ah"/><use transform="matrix(0.03703703703703704,0,0,0.03703703703703704,14.814814814814817,0)" xlink:href="#al"/><use transform="matrix(0.03703703703703704,0,0,0.03703703703703704,18.51851851851852,0)" xlink:href="#ah"/><use transform="matrix(0.03703703703703704,0,0,0.03703703703703704,25.92592592592593,0)" xlink:href="#ba"/><use transform="matrix(0.03703703703703704,0,0,0.03703703703703704,29.629629629629633,0)" xlink:href="#au"/><use transform="matrix(0.03703703703703704,0,0,0.03703703703703704,34.03703703703704,0)" xlink:href="#ah"/><use transform="matrix(0.03703703703703704,0,0,0.03703703703703704,41.44444444444444,0)" xlink:href="#ag"/><use transform="matrix(0.03703703703703704,0,0,0.03703703703703704,52.51851851851852,0)" xlink:href="#aj"/><use transform="matrix(0.03703703703703704,0,0,0.03703703703703704,59.925925925925924,0)" xlink:href="#ao"/></g><g id="D"><use transform="matrix(0.03703703703703704,0,0,0.03703703703703704,0,0)" xlink:href="#ba"/><use transform="matrix(0.03703703703703704,0,0,0.03703703703703704,3.703703703703704,0)" xlink:href="#aP"/><use transform="matrix(0.03703703703703704,0,0,0.03703703703703704,11.111111111111112,0)" xlink:href="#au"/></g><g id="E"><use transform="matrix(0.03703703703703704,0,0,0.03703703703703704,0,0)" xlink:href="#aj"/><use transform="matrix(0.03703703703703704,0,0,0.03703703703703704,7.407407407407408,0)" xlink:href="#ah"/><use transform="matrix(0.03703703703703704,0,0,0.03703703703703704,14.814814814814817,0)" xlink:href="#aR"/><use transform="matrix(0.03703703703703704,0,0,0.03703703703703704,21.481481481481485,0)" xlink:href="#aL"/></g><g id="F"><use transform="matrix(0.03703703703703704,0,0,0.03703703703703704,0,0)" xlink:href="#ap"/><use transform="matrix(0.03703703703703704,0,0,0.03703703703703704,7.407407407407408,0)" xlink:href="#ah"/><use transform="matrix(0.03703703703703704,0,0,0.03703703703703704,14.814814814814817,0)" xlink:href="#al"/><use transform="matrix(0.03703703703703704,0,0,0.03703703703703704,18.51851851851852,0)" xlink:href="#aj"/></g><g id="G"><use transform="matrix(0.03703703703703704,0,0,0.03703703703703704,0,0)" xlink:href="#aU"/><use transform="matrix(0.03703703703703704,0,0,0.03703703703703704,9.592592592592593,0)" xlink:href="#am"/><use transform="matrix(0.03703703703703704,0,0,0.03703703703703704,12.518518518518517,0)" xlink:href="#al"/><use transform="matrix(0.03703703703703704,0,0,0.03703703703703704,16.22222222222222,0)" xlink:href="#aL"/></g><path fill="#333" d="M27 0v-27h64v-190l-56 39v-29l58-41h29v221h61V0H27" id="bd"/><g id="H"><use transform="matrix(0.03703703703703704,0,0,0.03703703703703704,0,0)" xlink:href="#bd"/><use transform="matrix(0.03703703703703704,0,0,0.03703703703703704,7.407407407407408,0)" xlink:href="#aZ"/></g><g id="I"><use transform="matrix(0.03703703703703704,0,0,0.03703703703703704,0,0)" xlink:href="#aO"/><use transform="matrix(0.03703703703703704,0,0,0.03703703703703704,8.88888888888889,0)" xlink:href="#au"/><use transform="matrix(0.03703703703703704,0,0,0.03703703703703704,13.296296296296298,0)" xlink:href="#aP"/><use transform="matrix(0.03703703703703704,0,0,0.03703703703703704,20.703703703703706,0)" xlink:href="#ap"/><use transform="matrix(0.03703703703703704,0,0,0.03703703703703704,28.111111111111114,0)" xlink:href="#aQ"/><use transform="matrix(0.03703703703703704,0,0,0.03703703703703704,35.51851851851852,0)" xlink:href="#aR"/><use transform="matrix(0.03703703703703704,0,0,0.03703703703703704,42.18518518518519,0)" xlink:href="#al"/></g><g id="J"><use transform="matrix(0.03703703703703704,0,0,0.03703703703703704,0,0)" xlink:href="#al"/><use transform="matrix(0.03703703703703704,0,0,0.03703703703703704,3.703703703703704,0)" xlink:href="#bc"/><use transform="matrix(0.03703703703703704,0,0,0.03703703703703704,10.370370370370372,0)" xlink:href="#aM"/><use transform="matrix(0.03703703703703704,0,0,0.03703703703703704,17.77777777777778,0)" xlink:href="#aj"/></g><path fill="#333" d="M101-251c82-7 93 87 43 132L82-64C71-53 59-42 53-27h129V0H18c2-99 128-94 128-182 0-28-16-43-45-43s-46 15-49 41l-32-3c6-41 34-60 81-64" id="be"/><g id="K"><use transform="matrix(0.03703703703703704,0,0,0.03703703703703704,0,0)" xlink:href="#be"/><use transform="matrix(0.03703703703703704,0,0,0.03703703703703704,7.407407407407408,0)" xlink:href="#aZ"/></g><g id="L"><use transform="matrix(0.03703703703703704,0,0,0.03703703703703704,0,0)" xlink:href="#ay"/><use transform="matrix(0.03703703703703704,0,0,0.03703703703703704,8.88888888888889,0)" xlink:href="#aR"/><use transform="matrix(0.03703703703703704,0,0,0.03703703703703704,15.555555555555557,0)" xlink:href="#bb"/><use transform="matrix(0.03703703703703704,0,0,0.03703703703703704,22.962962962962965,0)" xlink:href="#aQ"/><use transform="matrix(0.03703703703703704,0,0,0.03703703703703704,30.370370370370374,0)" xlink:href="#am"/><use transform="matrix(0.03703703703703704,0,0,0.03703703703703704,33.2962962962963,0)" xlink:href="#ao"/><use transform="matrix(0.03703703703703704,0,0,0.03703703703703704,39.96296296296296,0)" xlink:href="#am"/><use transform="matrix(0.03703703703703704,0,0,0.03703703703703704,42.888888888888886,0)" xlink:href="#al"/><use transform="matrix(0.03703703703703704,0,0,0.03703703703703704,46.59259259259259,0)" xlink:href="#am"/><use transform="matrix(0.03703703703703704,0,0,0.03703703703703704,49.518518518518505,0)" xlink:href="#aP"/><use transform="matrix(0.03703703703703704,0,0,0.03703703703703704,56.925925925925924,0)" xlink:href="#aS"/></g><g id="M"><use transform="matrix(0.03703703703703704,0,0,0.03703703703703704,0,0)" xlink:href="#aN"/><use transform="matrix(0.03703703703703704,0,0,0.03703703703703704,9.592592592592593,0)" xlink:href="#ah"/><use transform="matrix(0.03703703703703704,0,0,0.03703703703703704,17,0)" xlink:href="#al"/><use transform="matrix(0.03703703703703704,0,0,0.03703703703703704,20.703703703703702,0)" xlink:href="#aj"/></g><path fill="#333" d="M126-127c33 6 58 20 58 59 0 88-139 92-164 29-3-8-5-16-6-25l32-3c6 27 21 44 54 44 32 0 52-15 52-46 0-38-36-46-79-43v-28c39 1 72-4 72-42 0-27-17-43-46-43-28 0-47 15-49 41l-32-3c6-42 35-63 81-64 48-1 79 21 79 65 0 36-21 52-52 59" id="bf"/><g id="N"><use transform="matrix(0.03703703703703704,0,0,0.03703703703703704,0,0)" xlink:href="#bf"/><use transform="matrix(0.03703703703703704,0,0,0.03703703703703704,7.407407407407408,0)" xlink:href="#aZ"/></g><g id="O"><use transform="matrix(0.03703703703703704,0,0,0.03703703703703704,0,0)" xlink:href="#al"/><use transform="matrix(0.03703703703703704,0,0,0.03703703703703704,3.703703703703704,0)" xlink:href="#am"/><use transform="matrix(0.03703703703703704,0,0,0.03703703703703704,6.629629629629631,0)" xlink:href="#an"/><use transform="matrix(0.03703703703703704,0,0,0.03703703703703704,9.555555555555557,0)" xlink:href="#aj"/></g><path fill="#333" d="M155-56V0h-30v-56H8v-25l114-167h33v167h35v25h-35zm-30-156c-27 46-58 90-88 131h88v-131" id="bg"/><g id="P"><use transform="matrix(0.03703703703703704,0,0,0.03703703703703704,0,0)" xlink:href="#bg"/><use transform="matrix(0.03703703703703704,0,0,0.03703703703703704,7.407407407407408,0)" xlink:href="#aZ"/></g><g id="Q"><use transform="matrix(0.03703703703703704,0,0,0.03703703703703704,0,0)" xlink:href="#aN"/><use transform="matrix(0.03703703703703704,0,0,0.03703703703703704,9.592592592592593,0)" xlink:href="#aP"/><use transform="matrix(0.03703703703703704,0,0,0.03703703703703704,17,0)" xlink:href="#aU"/><use transform="matrix(0.03703703703703704,0,0,0.03703703703703704,26.592592592592595,0)" xlink:href="#aS"/><use transform="matrix(0.03703703703703704,0,0,0.03703703703703704,34,0)" xlink:href="#an"/><use transform="matrix(0.03703703703703704,0,0,0.03703703703703704,36.925925925925924,0)" xlink:href="#aP"/><use transform="matrix(0.03703703703703704,0,0,0.03703703703703704,44.33333333333333,0)" xlink:href="#ah"/><use transform="matrix(0.03703703703703704,0,0,0.03703703703703704,51.74074074074073,0)" xlink:href="#ap"/></g><path fill="#333" d="M233-177c-1 41-23 64-60 70L243 0h-38l-65-103H63V0H30v-248c88 3 205-21 203 71zM63-129c60-2 137 13 137-47 0-61-80-42-137-45v92" id="bh"/><g id="R"><use transform="matrix(0.03703703703703704,0,0,0.03703703703703704,0,0)" xlink:href="#aq"/><use transform="matrix(0.03703703703703704,0,0,0.03703703703703704,9.592592592592593,0)" xlink:href="#bh"/><use transform="matrix(0.03703703703703704,0,0,0.03703703703703704,19.185185185185187,0)" xlink:href="#aB"/></g><path fill="#333" d="M115-194c53 0 69 39 70 98 0 66-23 100-70 100C84 3 66-7 56-30L54 0H23l1-261h32v101c10-23 28-34 59-34zm-8 174c40 0 45-34 45-75 0-40-5-75-45-74-42 0-51 32-51 76 0 43 10 73 51 73" id="bi"/><g id="S"><use transform="matrix(0.05,0,0,0.05,0,0)" xlink:href="#at"/><use transform="matrix(0.05,0,0,0.05,10,0)" xlink:href="#aj"/><use transform="matrix(0.05,0,0,0.05,20,0)" xlink:href="#al"/><use transform="matrix(0.05,0,0,0.05,25,0)" xlink:href="#ak"/><use transform="matrix(0.05,0,0,0.05,35,0)" xlink:href="#ah"/><use transform="matrix(0.05,0,0,0.05,45,0)" xlink:href="#aC"/><use transform="matrix(0.05,0,0,0.05,54,0)" xlink:href="#ah"/><use transform="matrix(0.05,0,0,0.05,64,0)" xlink:href="#am"/><use transform="matrix(0.05,0,0,0.05,67.95,0)" xlink:href="#an"/><use transform="matrix(0.05,0,0,0.05,71.9,0)" xlink:href="#ah"/><use transform="matrix(0.05,0,0,0.05,81.9,0)" xlink:href="#bi"/><use transform="matrix(0.05,0,0,0.05,91.9,0)" xlink:href="#an"/><use transform="matrix(0.05,0,0,0.05,95.85000000000001,0)" xlink:href="#aj"/><use transform="matrix(0.05,0,0,0.05,105.85000000000001,0)" xlink:href="#ak"/><use transform="matrix(0.05,0,0,0.05,115.85000000000001,0)" xlink:href="#ap"/><use transform="matrix(0.05,0,0,0.05,125.85000000000001,0)" xlink:href="#ah"/><use transform="matrix(0.05,0,0,0.05,135.85000000000002,0)" xlink:href="#al"/><use transform="matrix(0.05,0,0,0.05,140.85000000000002,0)" xlink:href="#ah"/><use transform="matrix(0.05,0,0,0.05,150.85000000000002,0)" xlink:href="#ao"/><use transform="matrix(0.05,0,0,0.05,159.85000000000002,0)" xlink:href="#aj"/><use transform="matrix(0.05,0,0,0.05,169.85000000000002,0)" xlink:href="#al"/><use transform="matrix(0.05,0,0,0.05,174.85000000000002,0)" xlink:href="#ao"/><use transform="matrix(0.05,0,0,0.05,183.85000000000002,0)" xlink:href="#ak"/><use transform="matrix(0.05,0,0,0.05,193.85000000000002,0)" xlink:href="#ba"/><use transform="matrix(0.05,0,0,0.05,198.85000000000002,0)" xlink:href="#au"/><use transform="matrix(0.05,0,0,0.05,204.8,0)" xlink:href="#aP"/><use transform="matrix(0.05,0,0,0.05,214.8,0)" xlink:href="#ag"/></g><g id="T"><use transform="matrix(0.05,0,0,0.05,0,0)" xlink:href="#ao"/><use transform="matrix(0.05,0,0,0.05,9,0)" xlink:href="#aL"/><use transform="matrix(0.05,0,0,0.05,19,0)" xlink:href="#ah"/><use transform="matrix(0.05,0,0,0.05,29,0)" xlink:href="#aM"/><use transform="matrix(0.05,0,0,0.05,39,0)" xlink:href="#aj"/></g><g id="U"><use transform="matrix(0.03703703703703704,0,0,0.03703703703703704,0,0)" xlink:href="#ap"/><use transform="matrix(0.03703703703703704,0,0,0.03703703703703704,7.407407407407408,0)" xlink:href="#ah"/><use transform="matrix(0.03703703703703704,0,0,0.03703703703703704,14.814814814814817,0)" xlink:href="#al"/><use transform="matrix(0.03703703703703704,0,0,0.03703703703703704,18.51851851851852,0)" xlink:href="#ah"/><use transform="matrix(0.03703703703703704,0,0,0.03703703703703704,25.92592592592593,0)" xlink:href="#ba"/><use transform="matrix(0.03703703703703704,0,0,0.03703703703703704,29.629629629629633,0)" xlink:href="#au"/><use transform="matrix(0.03703703703703704,0,0,0.03703703703703704,34.03703703703704,0)" xlink:href="#ah"/><use transform="matrix(0.03703703703703704,0,0,0.03703703703703704,41.44444444444444,0)" xlink:href="#ag"/><use transform="matrix(0.03703703703703704,0,0,0.03703703703703704,52.51851851851852,0)" xlink:href="#aj"/></g><g id="V"><use transform="matrix(0.03703703703703704,0,0,0.03703703703703704,0,0)" xlink:href="#aP"/><use transform="matrix(0.03703703703703704,0,0,0.03703703703703704,7.407407407407408,0)" xlink:href="#ba"/></g><g id="W"><use transform="matrix(0.03703703703703704,0,0,0.03703703703703704,0,0)" xlink:href="#ag"/><use transform="matrix(0.03703703703703704,0,0,0.03703703703703704,11.074074074074076,0)" xlink:href="#ah"/><use transform="matrix(0.03703703703703704,0,0,0.03703703703703704,18.481481481481485,0)" xlink:href="#al"/><use transform="matrix(0.03703703703703704,0,0,0.03703703703703704,22.185185185185194,0)" xlink:href="#aR"/><use transform="matrix(0.03703703703703704,0,0,0.03703703703703704,28.85185185185186,0)" xlink:href="#aL"/><use transform="matrix(0.03703703703703704,0,0,0.03703703703703704,36.25925925925927,0)" xlink:href="#am"/><use transform="matrix(0.03703703703703704,0,0,0.03703703703703704,39.18518518518519,0)" xlink:href="#aS"/><use transform="matrix(0.03703703703703704,0,0,0.03703703703703704,46.592592592592595,0)" xlink:href="#at"/></g><path fill="#333" d="M68-38c1 34 0 65-14 84H32c9-13 17-26 17-46H33v-38h35" id="bj"/><g id="X"><use transform="matrix(0.03703703703703704,0,0,0.03703703703703704,0,0)" xlink:href="#al"/><use transform="matrix(0.03703703703703704,0,0,0.03703703703703704,3.703703703703704,0)" xlink:href="#am"/><use transform="matrix(0.03703703703703704,0,0,0.03703703703703704,6.629629629629631,0)" xlink:href="#an"/><use transform="matrix(0.03703703703703704,0,0,0.03703703703703704,9.555555555555557,0)" xlink:href="#aj"/><use transform="matrix(0.03703703703703704,0,0,0.03703703703703704,16.962962962962965,0)" xlink:href="#ao"/><use transform="matrix(0.03703703703703704,0,0,0.03703703703703704,23.629629629629633,0)" xlink:href="#bj"/></g><g id="Y"><use transform="matrix(0.03703703703703704,0,0,0.03703703703703704,0,0)" xlink:href="#ap"/><use transform="matrix(0.03703703703703704,0,0,0.03703703703703704,7.407407407407408,0)" xlink:href="#ah"/><use transform="matrix(0.03703703703703704,0,0,0.03703703703703704,14.814814814814817,0)" xlink:href="#al"/><use transform="matrix(0.03703703703703704,0,0,0.03703703703703704,18.51851851851852,0)" xlink:href="#aj"/></g><g id="Z"><use transform="matrix(0.03703703703703704,0,0,0.03703703703703704,0,0)" xlink:href="#ah"/><use transform="matrix(0.03703703703703704,0,0,0.03703703703703704,7.407407407407408,0)" xlink:href="#aS"/><use transform="matrix(0.03703703703703704,0,0,0.03703703703703704,14.814814814814817,0)" xlink:href="#ap"/></g><g id="aa"><use transform="matrix(0.05,0,0,0.05,0,0)" xlink:href="#ag"/><use transform="matrix(0.05,0,0,0.05,14.950000000000001,0)" xlink:href="#ah"/><use transform="matrix(0.05,0,0,0.05,24.950000000000003,0)" xlink:href="#ai"/><use transform="matrix(0.05,0,0,0.05,33.95,0)" xlink:href="#aj"/><use transform="matrix(0.05,0,0,0.05,43.95,0)" xlink:href="#ak"/><use transform="matrix(0.05,0,0,0.05,53.95,0)" xlink:href="#ag"/><use transform="matrix(0.05,0,0,0.05,68.9,0)" xlink:href="#aP"/><use transform="matrix(0.05,0,0,0.05,78.9,0)" xlink:href="#ao"/><use transform="matrix(0.05,0,0,0.05,87.9,0)" xlink:href="#ah"/><use transform="matrix(0.05,0,0,0.05,97.9,0)" xlink:href="#am"/><use transform="matrix(0.05,0,0,0.05,101.85000000000001,0)" xlink:href="#aR"/></g><g id="ab"><use transform="matrix(0.03703703703703704,0,0,0.03703703703703704,0,0)" xlink:href="#aO"/><use transform="matrix(0.03703703703703704,0,0,0.03703703703703704,8.88888888888889,0)" xlink:href="#ah"/><use transform="matrix(0.03703703703703704,0,0,0.03703703703703704,16.296296296296298,0)" xlink:href="#al"/><use transform="matrix(0.03703703703703704,0,0,0.03703703703703704,20,0)" xlink:href="#aL"/><use transform="matrix(0.03703703703703704,0,0,0.03703703703703704,27.40740740740741,0)" xlink:href="#ao"/></g><path fill="#333" d="M63-220v92h138v28H63V0H30v-248h175v28H63" id="bk"/><g id="ac"><use transform="matrix(0.03703703703703704,0,0,0.03703703703703704,0,0)" xlink:href="#aA"/><use transform="matrix(0.03703703703703704,0,0,0.03703703703703704,9.592592592592593,0)" xlink:href="#aN"/><use transform="matrix(0.03703703703703704,0,0,0.03703703703703704,19.185185185185187,0)" xlink:href="#bk"/></g><g id="ad"><use transform="matrix(0.03703703703703704,0,0,0.03703703703703704,0,0)" xlink:href="#aN"/><use transform="matrix(0.03703703703703704,0,0,0.03703703703703704,9.592592592592593,0)" xlink:href="#aj"/><use transform="matrix(0.03703703703703704,0,0,0.03703703703703704,17,0)" xlink:href="#ao"/><use transform="matrix(0.03703703703703704,0,0,0.03703703703703704,23.66666666666667,0)" xlink:href="#al"/><use transform="matrix(0.03703703703703704,0,0,0.03703703703703704,27.370370370370374,0)" xlink:href="#am"/><use transform="matrix(0.03703703703703704,0,0,0.03703703703703704,30.2962962962963,0)" xlink:href="#aS"/><use transform="matrix(0.03703703703703704,0,0,0.03703703703703704,37.70370370370371,0)" xlink:href="#ah"/><use transform="matrix(0.03703703703703704,0,0,0.03703703703703704,45.111111111111114,0)" xlink:href="#al"/><use transform="matrix(0.03703703703703704,0,0,0.03703703703703704,48.81481481481481,0)" xlink:href="#am"/><use transform="matrix(0.03703703703703704,0,0,0.03703703703703704,51.74074074074074,0)" xlink:href="#aP"/><use transform="matrix(0.03703703703703704,0,0,0.03703703703703704,59.14814814814816,0)" xlink:href="#aS"/></g><g id="ae"><use transform="matrix(0.03703703703703704,0,0,0.03703703703703704,0,0)" xlink:href="#aN"/><use transform="matrix(0.03703703703703704,0,0,0.03703703703703704,9.592592592592593,0)" xlink:href="#am"/><use transform="matrix(0.03703703703703704,0,0,0.03703703703703704,12.518518518518517,0)" xlink:href="#au"/></g><g id="af"><use transform="matrix(0.03703703703703704,0,0,0.03703703703703704,0,0)" xlink:href="#aS"/><use transform="matrix(0.03703703703703704,0,0,0.03703703703703704,7.407407407407408,0)" xlink:href="#aP"/><use transform="matrix(0.03703703703703704,0,0,0.03703703703703704,14.814814814814817,0)" xlink:href="#aS"/><use transform="matrix(0.03703703703703704,0,0,0.03703703703703704,22.222222222222225,0)" xlink:href="#aj"/></g></defs></g></svg>