<svg xmlns="http://www.w3.org/2000/svg" xmlns:xlink="http://www.w3.org/1999/xlink" xmlns:lucid="lucid" width="1111" height="1187"><g transform="translate(-323 -474)" lucid:page-tab-id="0_0"><path d="M457.6 520h841.92v280h-841.9z" stroke="#333" stroke-width="2" fill="#e5e5e5" fill-opacity=".3"/><path d="M457.6 520h841.92v70.18h-841.9z" stroke="#333" stroke-width="2" fill="#fff"/><use xlink:href="#a" transform="matrix(1,0,0,1,462.609493269434,525) translate(352.625 34.1)"/><use xlink:href="#b" transform="matrix(1,0,0,1,462.609493269434,525) translate(407.525 34.1)"/><path d="M889.2 592.18v86.33" stroke="#333" stroke-width="2" fill="none"/><path d="M890.2 592.2h-2v-1.02h2z" fill="#333"/><path d="M889.2 693.78l-4.64-14.27h9.27z" stroke="#333" stroke-width="2" fill="#333"/><path d="M679.6 801.63h80.42" stroke="#333" stroke-width="2" fill="none"/><path d="M679.64 802.63h-1.1l.07-1-.04-1h1.08z" fill="#333"/><path d="M775.28 801.63l-14.26 4.63V797z" stroke="#333" stroke-width="2" fill="#333"/><use xlink:href="#c" transform="matrix(1,0,0,1,690.5441131529342,805.6277777778362) translate(0 14.4)"/><path d="M1183.8 592.18v25.19" stroke="#333" stroke-width="2" fill="none"/><path d="M1184.8 592.2h-2v-1.02h2z" fill="#333"/><path d="M1183.8 632.64l-4.64-14.27h9.27z" stroke="#333" stroke-width="2" fill="#333"/><path d="M401 1155.76l.54 2.85 1.42 2.32 2.13 1.65 2.7.82.84.04-.1 2-1.1-.06-3.28-1-2.7-2.1-1.82-2.93-.64-3.4V979.06h2zm37.1-353.13h-26.03l-2.92.38-2.64 1.1-2.27 1.76-1.76 2.28-1.1 2.63-.37 2.92v143.77h-2v-143.9l.43-3.32 1.3-3.12 2.07-2.7 2.7-2.08 3.13-1.3 3.3-.42h26.18zM453.37 801.63l-14.26 4.63V797z" fill="#333"/><path d="M456.6 801.63l-18.5 6v-12zm-16.5 3.26l10.04-3.27-10.03-3.26zM423.85 1164.44l-14.26 4.63v-9.27z" fill="#333"/><path d="M427.1 1164.44l-18.5 6v-12zm-16.5 3.26l10.02-3.26-10.03-3.26z" fill="#333"/><use xlink:href="#d" transform="matrix(1,0,0,1,386.55,957.4723547522714) translate(0 14.4)"/><path d="M401 1408.18l.38 2.92 1.1 2.64 1.75 2.28 2.28 1.76 2.65 1.1 2.92.37h26.04v2h-26.17l-3.3-.43-3.13-1.3-2.7-2.07-2.07-2.7-1.3-3.13-.43-3.3v-117.94h2zm25.1-242.74h-14.03l-2.92.38-2.64 1.1-2.27 1.75-1.76 2.28-1.1 2.63-.37 2.92v92.28h-2v-92.4l.43-3.32 1.3-3.12 2.07-2.7 2.7-2.08 3.13-1.3 3.3-.42h14.16z" fill="#333"/><path d="M427.1 1164.43v1h-1.04v-2h1.07zM453.37 1420.25l-14.26 4.64v-9.3z" fill="#333"/><path d="M456.6 1420.25l-18.5 6v-12zm-16.5 3.26l10.04-3.25-10.03-3.26z" fill="#333"/><use xlink:href="#d" transform="matrix(1,0,0,1,386.55,1268.7773006135044) translate(0 14.4)"/><path d="M963.62 1371.74h160.58" stroke="#333" stroke-width="2" fill="none"/><path d="M963.65 1372.74h-1.03v-2h1.03z" fill="#333"/><path d="M1139.46 1371.74l-14.26 4.63v-9.27z" stroke="#333" stroke-width="2" fill="#333"/><use xlink:href="#e" transform="matrix(1,0,0,1,1021.086587955608,1375.7371379290173) translate(0 14.4)"/><path d="M761 1240.76l.38 2.92 1.1 2.63 1.75 2.3 2.28 1.75 2.65 1.1 2.92.38h55.14v2h-55.27l-3.3-.44-3.13-1.3-2.7-2.08-2.07-2.7-1.3-3.12-.43-3.3v-9.7h2zm58.15-365.38h-47.08l-2.92.38-2.64 1.1-2.27 1.75-1.76 2.3-1.1 2.62-.37 2.92V1188h-2V886.3l.43-3.3 1.3-3.12 2.07-2.7 2.7-2.08 3.13-1.3 3.3-.42h47.22z" fill="#333"/><path d="M820.15 875.38h-1.03v-2h1.03zM842.48 1252.83l-14.27 4.63v-9.27z" fill="#333"/><path d="M845.7 1252.83l-18.5 6v-12.02zm-16.5 3.25l10.04-3.25-10.03-3.26z" fill="#333"/><use xlink:href="#f" transform="matrix(1,0,0,1,713.575,1188.0129030087792) translate(0 14.4)"/><use xlink:href="#g" transform="matrix(1,0,0,1,713.575,1188.0129030087792) translate(0 36)"/><use xlink:href="#h" transform="matrix(1,0,0,1,713.575,1188.0129030087792) translate(43.900000000000006 36)"/><path d="M963.62 1249.32h160.58" stroke="#333" stroke-width="2" fill="none"/><path d="M963.65 1250.33h-1.03v-2h1.03z" fill="#333"/><path d="M1139.46 1249.32l-14.26 4.64v-9.27z" stroke="#333" stroke-width="2" fill="#333"/><use xlink:href="#i" transform="matrix(1,0,0,1,1011.8393090811337,1253.3249999999766) translate(10.905000000000001 14.4)"/><use xlink:href="#j" transform="matrix(1,0,0,1,1011.8393090811337,1253.3249999999766) translate(9.93 36)"/><use xlink:href="#k" transform="matrix(1,0,0,1,1011.8393090811337,1253.3249999999766) translate(0.004999999999999005 57.6)"/><path d="M761 1408.32l-.43 3.3-1.3 3.13-2.07 2.7-2.7 2.07-3.13 1.3-3.3.43H679.6v-2h68.33l2.92-.38 2.64-1.1 2.27-1.75 1.76-2.28 1.1-2.64.37-2.92v-3.85h2zm66.2-34.4h-21.75v-2h21.76z" fill="#333"/><path d="M679.64 1421.25h-1.1l.07-1-.04-1h1.08zM842.48 1372.93l-14.27 4.63v-9.27z" fill="#333"/><path d="M845.7 1372.93l-18.5 6v-12.02zm-16.5 3.26l10.04-3.27-10.03-3.26z" fill="#333"/><use xlink:href="#l" transform="matrix(1,0,0,1,714.55,1361.1316886214465) translate(0 14.4)"/><use xlink:href="#m" transform="matrix(1,0,0,1,714.55,1361.1316886214465) translate(0 36)"/><use xlink:href="#h" transform="matrix(1,0,0,1,714.55,1361.1316886214465) translate(41.95 36)"/><path d="M814.25 1142.2H990v354.5H814.25z" stroke="#c92d39" stroke-width="2" fill-opacity="0"/><path d="M961.62 1421.2c0 14.42-25.72 26.1-57.45 26.1-31.73 0-57.46-11.68-57.46-26.1v-208.7c0-14.42 25.74-26.1 57.47-26.1s57.45 11.68 57.45 26.1z" stroke="#333" stroke-width="2" fill="#ffc374"/><path d="M961.62 1212.5c0 14.4-25.72 26.08-57.45 26.08-31.73 0-57.46-11.68-57.46-26.1" stroke="#333" stroke-width="2" fill="none"/><use xlink:href="#n" transform="matrix(1,0,0,1,851.7125167874385,1243.5799999999535) translate(6.949999999999989 92.30000000000001)"/><use xlink:href="#o" transform="matrix(1,0,0,1,851.7125167874385,1243.5799999999535) translate(62.15 92.30000000000001)"/><use xlink:href="#p" transform="matrix(1,0,0,1,851.7125167874385,1243.5799999999535) translate(25.5 113.9)"/><path d="M740 1140h228.88v60H740z" stroke="#000" stroke-opacity="0" stroke-width="2" fill="#fff" fill-opacity="0"/><use xlink:href="#q" transform="matrix(1,0,0,1,745,1145) translate(85.55 28.6)"/><path d="M814.25 1497.8H990v99.88H814.25z" stroke="#c92d39" stroke-width="2" fill="#fff"/><use xlink:href="#r" transform="matrix(1,0,0,1,819.2520880017391,1502.812500000035) translate(58.525 48.6)"/><path d="M1361 1237.4l-.43 3.3-1.3 3.12-2.07 2.7-2.7 2.08-3.13 1.3-3.3.42h-91.22v-2h91.08l2.92-.38 2.64-1.1 2.27-1.74 1.76-2.3 1.1-2.62.37-2.92V880.23h2zm-9.63-436.34l3.13 1.3 2.7 2.07 2.07 2.7 1.3 3.12.43 3.3v45.08h-2V813.7l-.38-2.93-1.1-2.63-1.75-2.28-2.28-1.76-2.65-1.1-2.92-.37h-28.9v-2h29.04z" fill="#333"/><path d="M1256.88 1250.33h-1.03v-2h1.03zM1318.02 806.26l-14.26-4.63 14.26-4.64z" fill="#333"/><path d="M1319.02 807.64l-18.5-6 18.5-6.02zm-12.03-6l10.02 3.25v-6.53z" fill="#333"/><use xlink:href="#s" transform="matrix(1,0,0,1,1336.575,858.6263803681034) translate(0 14.4)"/><path d="M633.6 1380c24.3 0 44 18.02 44 40.25s-19.7 40.25-44 40.25h-132c-24.3 0-44-18.02-44-40.25s19.7-40.25 44-40.25z" stroke="#333" stroke-width="2" fill="#fff"/><use xlink:href="#t" transform="matrix(1,0,0,1,462.609493269434,1385) translate(47.599999999999994 39.1)"/><path d="M500 1520h140v76.4H500z" stroke="#333" stroke-width="2" fill="#c1e4f7"/><use xlink:href="#u" transform="matrix(1,0,0,1,505,1525) translate(0 20.166666666666664)"/><use xlink:href="#v" transform="matrix(1,0,0,1,505,1525) translate(0 36.166666666666664)"/><use xlink:href="#w" transform="matrix(1,0,0,1,505,1525) translate(38.14814814814815 36.166666666666664)"/><use xlink:href="#x" transform="matrix(1,0,0,1,505,1525) translate(70.62962962962965 36.166666666666664)"/><use xlink:href="#y" transform="matrix(1,0,0,1,505,1525) translate(96.4814814814815 36.166666666666664)"/><use xlink:href="#z" transform="matrix(1,0,0,1,505,1525) translate(0 52.16666666666667)"/><use xlink:href="#A" transform="matrix(1,0,0,1,505,1525) translate(28.074074074074083 52.16666666666667)"/><path d="M500 1460h140v60.86H500z" stroke="#333" stroke-width="2" fill="#ffeca9"/><use xlink:href="#B" transform="matrix(1,0,0,1,505,1465) translate(6.629629629629619 28.166666666666668)"/><use xlink:href="#C" transform="matrix(1,0,0,1,505,1465) translate(90.11111111111111 28.166666666666668)"/><path d="M652.1 1120.45c30.92 0 56 19.7 56 44 0 24.28-25.08 43.97-56 43.97h-168c-30.94 0-56-19.7-56-43.98 0-24.3 25.06-44 56-44z" stroke="#333" stroke-width="2" fill="#fff"/><use xlink:href="#D" transform="matrix(1,0,0,1,433.08818625003335,1125.45) translate(20.125 31.799999999999997)"/><use xlink:href="#E" transform="matrix(1,0,0,1,433.08818625003335,1125.45) translate(104.55 53.4)"/><path d="M498.1 1040h140v80h-140z" stroke="#333" stroke-width="2" fill="#ffbbb1"/><use xlink:href="#F" transform="matrix(1,0,0,1,503.08818625003335,1045) translate(0 13.666666666666668)"/><use xlink:href="#G" transform="matrix(1,0,0,1,503.08818625003335,1045) translate(0 29.666666666666668)"/><use xlink:href="#H" transform="matrix(1,0,0,1,503.08818625003335,1045) translate(0 45.66666666666667)"/><use xlink:href="#I" transform="matrix(1,0,0,1,503.08818625003335,1045) translate(0 61.66666666666667)"/><path d="M497.6 1268.42h140v76.4h-140z" stroke="#333" stroke-width="2" fill="#c1e4f7"/><use xlink:href="#u" transform="matrix(1,0,0,1,502.609493269434,1273.425) translate(0 12.166666666666668)"/><use xlink:href="#J" transform="matrix(1,0,0,1,502.609493269434,1273.425) translate(0 28.166666666666668)"/><use xlink:href="#K" transform="matrix(1,0,0,1,502.609493269434,1273.425) translate(63.629629629629626 28.166666666666668)"/><use xlink:href="#L" transform="matrix(1,0,0,1,502.609493269434,1273.425) translate(0 44.16666666666667)"/><use xlink:href="#M" transform="matrix(1,0,0,1,502.609493269434,1273.425) translate(57.7037037037037 44.16666666666667)"/><use xlink:href="#N" transform="matrix(1,0,0,1,502.609493269434,1273.425) translate(88.74074074074073 44.16666666666667)"/><use xlink:href="#O" transform="matrix(1,0,0,1,502.609493269434,1273.425) translate(0 60.16666666666667)"/><use xlink:href="#P" transform="matrix(1,0,0,1,502.609493269434,1273.425) translate(25.92592592592593 60.16666666666667)"/><path d="M497.6 1208.42h140v60h-140z" stroke="#333" stroke-width="2" fill="#ffeca9"/><use xlink:href="#Q" transform="matrix(1,0,0,1,502.609493269434,1213.425) translate(37.55555555555555 19.666666666666668)"/><use xlink:href="#R" transform="matrix(1,0,0,1,502.609493269434,1213.425) translate(15.481481481481474 35.66666666666667)"/><path d="M633.6 758.88c24.3 0 44 19.14 44 42.75 0 23.6-19.7 42.75-44 42.75h-132c-24.3 0-44-19.14-44-42.75 0-23.6 19.7-42.75 44-42.75z" stroke="#333" stroke-width="2" fill="#fff"/><use xlink:href="#S" transform="matrix(1,0,0,1,462.609493269434,763.8777777777779) translate(21.625 41.6)"/><path d="M508.1 679.78h120v79.1h-120z" stroke="#333" stroke-width="2" fill="#ffbbb1"/><use xlink:href="#F" transform="matrix(1,0,0,1,513.0881862500333,684.7777777777779) translate(0 13.666666666666668)"/><use xlink:href="#T" transform="matrix(1,0,0,1,513.0881862500333,684.7777777777779) translate(0 29.666666666666668)"/><use xlink:href="#U" transform="matrix(1,0,0,1,513.0881862500333,684.7777777777779) translate(27.370370370370374 29.666666666666668)"/><use xlink:href="#V" transform="matrix(1,0,0,1,513.0881862500333,684.7777777777779) translate(0 45.66666666666667)"/><use xlink:href="#I" transform="matrix(1,0,0,1,513.0881862500333,684.7777777777779) translate(0 61.66666666666667)"/><path d="M499.52 904.38h140v117.4h-140z" stroke="#333" stroke-width="2" fill="#c1e4f7"/><use xlink:href="#W" transform="matrix(1,0,0,1,504.52130701940064,909.3777777778943) translate(38.03703703703704 10.666666666666668)"/><use xlink:href="#X" transform="matrix(1,0,0,1,504.52130701940064,909.3777777778943) translate(4.722222222222214 26.666666666666668)"/><use xlink:href="#Y" transform="matrix(1,0,0,1,504.52130701940064,909.3777777778943) translate(24.648148148148145 26.666666666666668)"/><use xlink:href="#Z" transform="matrix(1,0,0,1,504.52130701940064,909.3777777778943) translate(39.46296296296296 26.666666666666668)"/><use xlink:href="#aa" transform="matrix(1,0,0,1,504.52130701940064,909.3777777778943) translate(109.75925925925927 26.666666666666668)"/><use xlink:href="#ab" transform="matrix(1,0,0,1,504.52130701940064,909.3777777778943) translate(22.07407407407407 42.66666666666667)"/><use xlink:href="#ac" transform="matrix(1,0,0,1,504.52130701940064,909.3777777778943) translate(54.666666666666664 42.66666666666667)"/><use xlink:href="#ad" transform="matrix(1,0,0,1,504.52130701940064,909.3777777778943) translate(84.2962962962963 42.66666666666667)"/><use xlink:href="#ae" transform="matrix(1,0,0,1,504.52130701940064,909.3777777778943) translate(0 58.66666666666667)"/><use xlink:href="#af" transform="matrix(1,0,0,1,504.52130701940064,909.3777777778943) translate(14.814814814814817 58.66666666666667)"/><use xlink:href="#ag" transform="matrix(1,0,0,1,504.52130701940064,909.3777777778943) translate(64.40740740740742 58.66666666666667)"/><use xlink:href="#ah" transform="matrix(1,0,0,1,504.52130701940064,909.3777777778943) translate(0 74.66666666666667)"/><use xlink:href="#ai" transform="matrix(1,0,0,1,504.52130701940064,909.3777777778943) translate(14.814814814814817 74.66666666666667)"/><use xlink:href="#aj" transform="matrix(1,0,0,1,504.52130701940064,909.3777777778943) translate(82.85185185185185 74.66666666666667)"/><use xlink:href="#ak" transform="matrix(1,0,0,1,504.52130701940064,909.3777777778943) translate(0 90.66666666666667)"/><use xlink:href="#al" transform="matrix(1,0,0,1,504.52130701940064,909.3777777778943) translate(14.814814814814817 90.66666666666667)"/><use xlink:href="#am" transform="matrix(1,0,0,1,504.52130701940064,909.3777777778943) translate(47.296296296296305 90.66666666666667)"/><use xlink:href="#an" transform="matrix(1,0,0,1,504.52130701940064,909.3777777778943) translate(0 106.66666666666667)"/><use xlink:href="#ao" transform="matrix(1,0,0,1,504.52130701940064,909.3777777778943) translate(14.814814814814817 106.66666666666667)"/><use xlink:href="#ap" transform="matrix(1,0,0,1,504.52130701940064,909.3777777778943) translate(77.66666666666666 106.66666666666667)"/><path d="M499.52 844.38h140v60h-140z" stroke="#333" stroke-width="2" fill="#ffeca9"/><g><use xlink:href="#aq" transform="matrix(1,0,0,1,504.52130701940064,849.3777777778943) translate(41.7037037037037 19.666666666666668)"/><use xlink:href="#ar" transform="matrix(1,0,0,1,504.52130701940064,849.3777777778943) translate(12.55555555555555 35.66666666666667)"/></g><path d="M1100.16 1144.37h184.28v354.5h-184.28z" stroke="#333" stroke-width="2" fill="#e5e5e5" fill-opacity=".26"/><path d="M1261.43 1437.32c0 6.63-26.35 12-58.86 12-32.52 0-58.87-5.37-58.87-12v-96c0-6.62 26.35-12 58.87-12 32.5 0 58.86 5.38 58.86 12z" stroke="#333" stroke-width="2" fill="#c7e8ac"/><path d="M1261.43 1341.32c0 6.63-26.35 12-58.86 12-32.52 0-58.87-5.37-58.87-12" stroke="#333" stroke-width="2" fill="none"/><g><use xlink:href="#as" transform="matrix(1,0,0,1,1148.6971058197735,1358.3249999999766) translate(13.024999999999999 35.8)"/><use xlink:href="#at" transform="matrix(1,0,0,1,1148.6971058197735,1358.3249999999766) translate(30.549999999999997 57.4)"/></g><path d="M1254.85 1297.32c0 6.63-24.88 12-55.58 12s-55.57-5.37-55.57-12v-96c0-6.62 24.88-12 55.57-12 30.7 0 55.58 5.38 55.58 12z" stroke="#333" stroke-width="2" fill="#c7e8ac"/><path d="M1254.85 1201.32c0 6.63-24.88 12-55.58 12s-55.57-5.37-55.57-12" stroke="#333" stroke-width="2" fill="none"/><g><use xlink:href="#au" transform="matrix(1,0,0,1,1148.6971058197735,1218.3249999999766) translate(1.0249999999999986 46.6)"/><use xlink:href="#av" transform="matrix(1,0,0,1,1148.6971058197735,1218.3249999999766) translate(41.025 46.6)"/></g><path d="M1020 1140h240v60h-240z" stroke="#000" stroke-opacity="0" stroke-width="2" fill="#fff" fill-opacity="0"/><g><use xlink:href="#aw" transform="matrix(1,0,0,1,1025,1145) translate(96.55 28.6)"/></g><path d="M1100.16 1500h184.28v99.87h-184.28z" stroke="#333" stroke-width="2" fill="#fff"/><g><use xlink:href="#a" transform="matrix(1,0,0,1,1105.1570093727735,1505) translate(24.124999999999993 48.6)"/><use xlink:href="#b" transform="matrix(1,0,0,1,1105.1570093727735,1505) translate(79.025 48.6)"/></g><path d="M1192.3 940l48.15 44-48.15 43.98-48.15-44z" stroke="#333" stroke-width="2" fill="#fff"/><g><use xlink:href="#ax" transform="matrix(1,0,0,1,1149.1472821804323,945) translate(12.5 42.6)"/></g><path d="M1191.82 906.8v14.68" stroke="#333" stroke-width="2" fill="none"/><path d="M1192.82 906.84h-2v-1.03h2z" fill="#333"/><path d="M1192.58 935.83l-5.38-14 9.25-.5z" stroke="#333" stroke-width="2" fill="#333"/><path d="M1141.66 984h-26.94c-6.63 0-12 5.36-12 12v89.92c0 6.62 5.37 12 12 12h72.55c6.63 0 12 5.37 12 12v59.9" stroke="#333" stroke-width="2" fill="none"/><path d="M1142.66 984l1.1 1h-2.12v-2h2.12z" fill="#333"/><path d="M1199.27 1185.1l-4.63-14.28h9.27z" stroke="#333" stroke-width="2" fill="#333"/><g><use xlink:href="#ay" transform="matrix(1,0,0,1,959.8711734250837,1026.1506234475655) translate(98.50999999999999 14.4)"/><use xlink:href="#az" transform="matrix(1,0,0,1,959.8711734250837,1026.1506234475655) translate(60.95999999999998 36)"/><use xlink:href="#aA" transform="matrix(1,0,0,1,959.8711734250837,1026.1506234475655) translate(122.85999999999999 36)"/><use xlink:href="#aB" transform="matrix(1,0,0,1,959.8711734250837,1026.1506234475655) translate(0.009999999999990905 57.6)"/><use xlink:href="#aC" transform="matrix(1,0,0,1,959.8711734250837,1026.1506234475655) translate(65.85999999999999 57.6)"/><use xlink:href="#aD" transform="matrix(1,0,0,1,959.8711734250837,1026.1506234475655) translate(85.85999999999999 57.6)"/></g><path d="M1242.93 984h26.95c6.62 0 12 5.36 12 12v89.92c0 6.62-5.38 12-12 12h-58.6c-6.63 0-12 5.37-12 12v59.9" stroke="#333" stroke-width="2" fill="none"/><path d="M1242.96 985h-2.12l1.1-1-1.1-1h2.12z" fill="#333"/><path d="M1199.27 1185.1l-4.63-14.28h9.27z" stroke="#333" stroke-width="2" fill="#333"/><g><use xlink:href="#aE" transform="matrix(1,0,0,1,1289.8762849357802,1030.734729001986) translate(0 14.4)"/><use xlink:href="#aF" transform="matrix(1,0,0,1,1289.8762849357802,1030.734729001986) translate(0 36)"/></g><path d="M955.52 758.88c24.3 0 44 19.14 44 42.75 0 23.6-19.7 42.75-44 42.75h-132c-24.3 0-44-19.14-44-42.75 0-23.6 19.7-42.75 44-42.75z" stroke="#333" stroke-width="2" fill="#fff"/><g><use xlink:href="#aG" transform="matrix(1,0,0,1,784.5213070194006,763.8777777777779) translate(39.64999999999999 41.6)"/></g><path d="M821.15 698h140v60.88h-140z" stroke="#333" stroke-width="2" fill="#ffbbb1"/><g><use xlink:href="#F" transform="matrix(1,0,0,1,826.1459201133944,703.0133637620479) translate(0 12.166666666666664)"/><use xlink:href="#aH" transform="matrix(1,0,0,1,826.1459201133944,703.0133637620479) translate(0 28.166666666666664)"/><use xlink:href="#aI" transform="matrix(1,0,0,1,826.1459201133944,703.0133637620479) translate(0 44.16666666666667)"/><use xlink:href="#aJ" transform="matrix(1,0,0,1,826.1459201133944,703.0133637620479) translate(70.25925925925927 44.16666666666667)"/></g><path d="M821.15 843.95h140v60.86h-140z" stroke="#333" stroke-width="2" fill="#ffeca9"/><g><use xlink:href="#B" transform="matrix(1,0,0,1,826.1459201133944,848.9455707700292) translate(5.8148148148148096 28.166666666666668)"/><use xlink:href="#aK" transform="matrix(1,0,0,1,826.1459201133944,848.9455707700292) translate(89.2962962962963 28.166666666666668)"/></g><path d="M1255.52 758.88c24.3 0 44 19.14 44 42.75 0 23.6-19.7 42.75-44 42.75h-132c-24.3 0-44-19.14-44-42.75 0-23.6 19.7-42.75 44-42.75z" stroke="#333" stroke-width="2" fill="#fff"/><g><use xlink:href="#aL" transform="matrix(1,0,0,1,1084.5213070194006,763.8777777777779) translate(43.62499999999999 41.6)"/></g><path d="M1120.67 636.88h137.7v122h-137.7z" stroke="#333" stroke-width="2" fill="#ffbbb1"/><g><use xlink:href="#F" transform="matrix(1,0,0,1,1125.6706716096164,641.8777777777779) translate(0 18.666666666666668)"/><use xlink:href="#aM" transform="matrix(1,0,0,1,1125.6706716096164,641.8777777777779) translate(0 34.66666666666667)"/><use xlink:href="#aN" transform="matrix(1,0,0,1,1125.6706716096164,641.8777777777779) translate(45.88888888888889 34.66666666666667)"/><use xlink:href="#aI" transform="matrix(1,0,0,1,1125.6706716096164,641.8777777777779) translate(0 50.66666666666667)"/><use xlink:href="#aN" transform="matrix(1,0,0,1,1125.6706716096164,641.8777777777779) translate(70.25925925925927 50.66666666666667)"/><use xlink:href="#aO" transform="matrix(1,0,0,1,1125.6706716096164,641.8777777777779) translate(0 66.66666666666667)"/><use xlink:href="#T" transform="matrix(1,0,0,1,1125.6706716096164,641.8777777777779) translate(0 82.66666666666667)"/><use xlink:href="#aP" transform="matrix(1,0,0,1,1125.6706716096164,641.8777777777779) translate(27.370370370370374 82.66666666666667)"/><use xlink:href="#aQ" transform="matrix(1,0,0,1,1125.6706716096164,641.8777777777779) translate(79.18518518518519 82.66666666666667)"/><use xlink:href="#aR" transform="matrix(1,0,0,1,1125.6706716096164,641.8777777777779) translate(0 98.66666666666667)"/><use xlink:href="#aS" transform="matrix(1,0,0,1,1125.6706716096164,641.8777777777779) translate(34.81481481481482 98.66666666666667)"/><use xlink:href="#aT" transform="matrix(1,0,0,1,1125.6706716096164,641.8777777777779) translate(91.03703703703704 98.66666666666667)"/></g><path d="M1121.82 843.95h140v60.86h-140z" stroke="#333" stroke-width="2" fill="#ffeca9"/><g><use xlink:href="#aU" transform="matrix(1,0,0,1,1126.8200361998322,848.9455707700292) translate(21.759259259259252 12.166666666666664)"/><use xlink:href="#aV" transform="matrix(1,0,0,1,1126.8200361998322,848.9455707700292) translate(44.68518518518518 28.166666666666664)"/><use xlink:href="#aW" transform="matrix(1,0,0,1,1126.8200361998322,848.9455707700292) translate(29.5 44.16666666666667)"/></g><path d="M568.1 592.18v68.1" stroke="#333" stroke-width="2" fill="none"/><path d="M569.1 592.2h-2v-1.02h2z" fill="#333"/><path d="M568.1 675.54l-4.65-14.27h9.27z" stroke="#333" stroke-width="2" fill="#333"/><defs><path fill="#333" d="M232-93c-1 65-40 97-104 97C67 4 28-28 28-90v-158h33c8 89-33 224 67 224 102 0 64-133 71-224h33v155" id="aX"/><path fill="#333" d="M185-189c-5-48-123-54-124 2 14 75 158 14 163 119 3 78-121 87-175 55-17-10-28-26-33-46l33-7c5 56 141 63 141-1 0-78-155-14-162-118-5-82 145-84 179-34 5 7 8 16 11 25" id="aY"/><path fill="#333" d="M30 0v-248h187v28H63v79h144v27H63v87h162V0H30" id="aZ"/><path fill="#333" d="M233-177c-1 41-23 64-60 70L243 0h-38l-65-103H63V0H30v-248c88 3 205-21 203 71zM63-129c60-2 137 13 137-47 0-61-80-42-137-45v92" id="ba"/><g id="a"><use transform="matrix(0.05,0,0,0.05,0,0)" xlink:href="#aX"/><use transform="matrix(0.05,0,0,0.05,12.950000000000001,0)" xlink:href="#aY"/><use transform="matrix(0.05,0,0,0.05,24.950000000000003,0)" xlink:href="#aZ"/><use transform="matrix(0.05,0,0,0.05,36.95,0)" xlink:href="#ba"/></g><path fill="#333" d="M30-248c118-7 216 8 213 122C240-48 200 0 122 0H30v-248zM63-27c89 8 146-16 146-99s-60-101-146-95v194" id="bb"/><path fill="#333" d="M140-251c81 0 123 46 123 126C263-46 219 4 140 4 59 4 17-45 17-125s42-126 123-126zm0 227c63 0 89-41 89-101s-29-99-89-99c-61 0-89 39-89 99S79-25 140-24" id="bc"/><path fill="#333" d="M240 0l2-218c-23 76-54 145-80 218h-23L58-218 59 0H30v-248h44l77 211c21-75 51-140 76-211h43V0h-30" id="bd"/><path fill="#333" d="M205 0l-28-72H64L36 0H1l101-248h38L239 0h-34zm-38-99l-47-123c-12 45-31 82-46 123h93" id="be"/><path fill="#333" d="M33 0v-248h34V0H33" id="bf"/><path fill="#333" d="M190 0L58-211 59 0H30v-248h39L202-35l-2-213h31V0h-41" id="bg"/><g id="b"><use transform="matrix(0.05,0,0,0.05,0,0)" xlink:href="#bb"/><use transform="matrix(0.05,0,0,0.05,12.950000000000001,0)" xlink:href="#bc"/><use transform="matrix(0.05,0,0,0.05,26.950000000000003,0)" xlink:href="#bd"/><use transform="matrix(0.05,0,0,0.05,41.900000000000006,0)" xlink:href="#be"/><use transform="matrix(0.05,0,0,0.05,53.900000000000006,0)" xlink:href="#bf"/><use transform="matrix(0.05,0,0,0.05,58.900000000000006,0)" xlink:href="#bg"/></g><path fill="#333" d="M141-36C126-15 110 5 73 4 37 3 15-17 15-53c-1-64 63-63 125-63 3-35-9-54-41-54-24 1-41 7-42 31l-33-3c5-37 33-52 76-52 45 0 72 20 72 64v82c-1 20 7 32 28 27v20c-31 9-61-2-59-35zM48-53c0 20 12 33 32 33 41-3 63-29 60-74-43 2-92-5-92 41" id="bh"/><path fill="#333" d="M59-47c-2 24 18 29 38 22v24C64 9 27 4 27-40v-127H5v-23h24l9-43h21v43h35v23H59v120" id="bi"/><path fill="#333" d="M135-143c-3-34-86-38-87 0 15 53 115 12 119 90S17 21 10-45l28-5c4 36 97 45 98 0-10-56-113-15-118-90-4-57 82-63 122-42 12 7 21 19 24 35" id="bj"/><path fill="#333" d="M100-194c63 0 86 42 84 106H49c0 40 14 67 53 68 26 1 43-12 49-29l28 8c-11 28-37 45-77 45C44 4 14-33 15-96c1-61 26-98 85-98zm52 81c6-60-76-77-97-28-3 7-6 17-6 28h103" id="bk"/><g id="c"><use transform="matrix(0.05,0,0,0.05,0,0)" xlink:href="#bb"/><use transform="matrix(0.05,0,0,0.05,12.950000000000001,0)" xlink:href="#bh"/><use transform="matrix(0.05,0,0,0.05,22.950000000000003,0)" xlink:href="#bi"/><use transform="matrix(0.05,0,0,0.05,27.950000000000003,0)" xlink:href="#bh"/><use transform="matrix(0.05,0,0,0.05,37.95,0)" xlink:href="#bj"/><use transform="matrix(0.05,0,0,0.05,46.95,0)" xlink:href="#bk"/><use transform="matrix(0.05,0,0,0.05,56.95,0)" xlink:href="#bi"/></g><path fill="#333" d="M96-169c-40 0-48 33-48 73s9 75 48 75c24 0 41-14 43-38l32 2c-6 37-31 61-74 61-59 0-76-41-82-99-10-93 101-131 147-64 4 7 5 14 7 22l-32 3c-4-21-16-35-41-35" id="bl"/><path fill="#333" d="M24 0v-261h32V0H24" id="bm"/><g id="d"><use transform="matrix(0.05,0,0,0.05,0,0)" xlink:href="#bl"/><use transform="matrix(0.05,0,0,0.05,9,0)" xlink:href="#bh"/><use transform="matrix(0.05,0,0,0.05,19,0)" xlink:href="#bm"/><use transform="matrix(0.05,0,0,0.05,22.95,0)" xlink:href="#bm"/></g><path fill="#333" d="M67-125c0 54 23 88 75 88 28 0 53-7 68-21v-34h-60v-39h108v91C232-14 192 4 140 4 58 4 20-42 15-125 8-236 126-280 215-234c19 10 29 26 37 47l-47 15c-11-23-29-39-63-39-53 1-75 33-75 86" id="bn"/><path fill="#333" d="M135-150c-39-12-60 13-60 57V0H25l-1-190h47c2 13-1 29 3 40 6-28 27-53 61-41v41" id="bo"/><path fill="#333" d="M25-224v-37h50v37H25zM25 0v-190h50V0H25" id="bp"/><path fill="#333" d="M88-194c31-1 46 15 58 34l-1-101h50l1 261h-48c-2-10 0-23-3-31C134-8 116 4 84 4 32 4 16-41 15-95c0-56 19-97 73-99zm17 164c33 0 40-30 41-66 1-37-9-64-41-64s-38 30-39 65c0 43 13 65 39 65" id="bq"/><g id="e"><use transform="matrix(0.05,0,0,0.05,0,0)" xlink:href="#bn"/><use transform="matrix(0.05,0,0,0.05,14,0)" xlink:href="#bo"/><use transform="matrix(0.05,0,0,0.05,21,0)" xlink:href="#bp"/><use transform="matrix(0.05,0,0,0.05,26,0)" xlink:href="#bq"/></g><path fill="#333" d="M100-194c62-1 85 37 85 99 1 63-27 99-86 99S16-35 15-95c0-66 28-99 85-99zM99-20c44 1 53-31 53-75 0-43-8-75-51-75s-53 32-53 75 10 74 51 75" id="br"/><path fill="#333" d="M206 0h-36l-40-164L89 0H53L-1-190h32L70-26l43-164h34l41 164 42-164h31" id="bs"/><path fill="#333" d="M117-194c89-4 53 116 60 194h-32v-121c0-31-8-49-39-48C34-167 62-67 57 0H25l-1-190h30c1 10-1 24 2 32 11-22 29-35 61-36" id="bt"/><path fill="#333" d="M85-194c31 0 48 13 60 33l-1-100h32l1 261h-30c-2-10 0-23-3-31C134-8 116 4 85 4 32 4 16-35 15-94c0-66 23-100 70-100zm9 24c-40 0-46 34-46 75 0 40 6 74 45 74 42 0 51-32 51-76 0-42-9-74-50-73" id="bu"/><g id="f"><use transform="matrix(0.05,0,0,0.05,0,0)" xlink:href="#bb"/><use transform="matrix(0.05,0,0,0.05,12.950000000000001,0)" xlink:href="#br"/><use transform="matrix(0.05,0,0,0.05,22.950000000000003,0)" xlink:href="#bs"/><use transform="matrix(0.05,0,0,0.05,35.900000000000006,0)" xlink:href="#bt"/><use transform="matrix(0.05,0,0,0.05,45.900000000000006,0)" xlink:href="#bm"/><use transform="matrix(0.05,0,0,0.05,49.85000000000001,0)" xlink:href="#br"/><use transform="matrix(0.05,0,0,0.05,59.85,0)" xlink:href="#bh"/><use transform="matrix(0.05,0,0,0.05,69.85000000000001,0)" xlink:href="#bu"/></g><path fill="#333" d="M24-248c120-7 223 5 221 122C244-46 201 0 124 0H24v-248zM76-40c74 7 117-18 117-86 0-67-45-88-117-82v168" id="bv"/><path fill="#333" d="M133-34C117-15 103 5 69 4 32 3 11-16 11-54c-1-60 55-63 116-61 1-26-3-47-28-47-18 1-26 9-28 27l-52-2c7-38 36-58 82-57s74 22 75 68l1 82c-1 14 12 18 25 15v27c-30 8-71 5-69-32zm-48 3c29 0 43-24 42-57-32 0-66-3-65 30 0 17 8 27 23 27" id="bw"/><path fill="#333" d="M115-3C79 11 28 4 28-45v-112H4v-33h27l15-45h31v45h36v33H77v99c-1 23 16 31 38 25v30" id="bx"/><g id="g"><use transform="matrix(0.05,0,0,0.05,0,0)" xlink:href="#bv"/><use transform="matrix(0.05,0,0,0.05,12.950000000000001,0)" xlink:href="#bw"/><use transform="matrix(0.05,0,0,0.05,22.950000000000003,0)" xlink:href="#bx"/><use transform="matrix(0.05,0,0,0.05,28.900000000000002,0)" xlink:href="#bw"/></g><path fill="#333" d="M140-251c81 0 123 46 123 126C263-53 228-8 163 1c7 30 30 48 69 40v23c-55 16-95-15-103-61C56-3 17-48 17-125c0-80 42-126 123-126zm0 227c63 0 89-41 89-101s-29-99-89-99c-61 0-89 39-89 99S79-25 140-24" id="by"/><path fill="#333" d="M84 4C-5 8 30-112 23-190h32v120c0 31 7 50 39 49 72-2 45-101 50-169h31l1 190h-30c-1-10 1-25-2-33-11 22-28 36-60 37" id="bz"/><path fill="#333" d="M114-163C36-179 61-72 57 0H25l-1-190h30c1 12-1 29 2 39 6-27 23-49 58-41v29" id="bA"/><path fill="#333" d="M179-190L93 31C79 59 56 82 12 73V49c39 6 53-20 64-50L1-190h34L92-34l54-156h33" id="bB"/><g id="h"><use transform="matrix(0.05,0,0,0.05,0,0)" xlink:href="#by"/><use transform="matrix(0.05,0,0,0.05,14,0)" xlink:href="#bz"/><use transform="matrix(0.05,0,0,0.05,24,0)" xlink:href="#bk"/><use transform="matrix(0.05,0,0,0.05,34,0)" xlink:href="#bA"/><use transform="matrix(0.05,0,0,0.05,39.95,0)" xlink:href="#bB"/></g><path fill="#333" d="M240-174c0 40-23 61-54 70L253 0h-59l-57-94H76V0H24v-248c93 4 217-23 216 74zM76-134c48-2 112 12 112-38 0-48-66-32-112-35v73" id="bC"/><path fill="#333" d="M231 0h-52l-39-155L100 0H48L-1-190h46L77-45c9-52 24-97 36-145h53l37 145 32-145h46" id="bD"/><g id="i"><use transform="matrix(0.05,0,0,0.05,0,0)" xlink:href="#bC"/><use transform="matrix(0.05,0,0,0.05,12.950000000000001,0)" xlink:href="#bw"/><use transform="matrix(0.05,0,0,0.05,22.950000000000003,0)" xlink:href="#bD"/></g><g id="j"><use transform="matrix(0.05,0,0,0.05,0,0)" xlink:href="#bv"/><use transform="matrix(0.05,0,0,0.05,12.950000000000001,0)" xlink:href="#bw"/><use transform="matrix(0.05,0,0,0.05,22.950000000000003,0)" xlink:href="#bx"/><use transform="matrix(0.05,0,0,0.05,28.900000000000002,0)" xlink:href="#bw"/></g><path fill="#333" d="M87 75C49 33 22-17 22-94c0-76 28-126 65-167h31c-38 41-64 92-64 168S80 34 118 75H87" id="bE"/><path fill="#333" d="M197 0v-115H63V0H30v-248h33v105h134v-105h34V0h-34" id="bF"/><path fill="#333" d="M63-220v92h138v28H63V0H30v-248h175v28H63" id="bG"/><path fill="#333" d="M155-56V0h-30v-56H8v-25l114-167h33v167h35v25h-35zm-30-156c-27 46-58 90-88 131h88v-131" id="bH"/><path fill="#333" d="M33-261c38 41 65 92 65 168S71 34 33 75H2C39 34 66-17 66-93S39-220 2-261h31" id="bI"/><g id="k"><use transform="matrix(0.05,0,0,0.05,0,0)" xlink:href="#bE"/><use transform="matrix(0.05,0,0,0.05,5.95,0)" xlink:href="#bF"/><use transform="matrix(0.05,0,0,0.05,18.900000000000002,0)" xlink:href="#bb"/><use transform="matrix(0.05,0,0,0.05,31.85,0)" xlink:href="#bG"/><use transform="matrix(0.05,0,0,0.05,42.800000000000004,0)" xlink:href="#bH"/><use transform="matrix(0.05,0,0,0.05,52.800000000000004,0)" xlink:href="#bI"/></g><g id="l"><use transform="matrix(0.05,0,0,0.05,0,0)" xlink:href="#bb"/><use transform="matrix(0.05,0,0,0.05,12.950000000000001,0)" xlink:href="#br"/><use transform="matrix(0.05,0,0,0.05,22.950000000000003,0)" xlink:href="#bs"/><use transform="matrix(0.05,0,0,0.05,35.900000000000006,0)" xlink:href="#bt"/><use transform="matrix(0.05,0,0,0.05,45.900000000000006,0)" xlink:href="#bm"/><use transform="matrix(0.05,0,0,0.05,49.85000000000001,0)" xlink:href="#br"/><use transform="matrix(0.05,0,0,0.05,59.85,0)" xlink:href="#bh"/><use transform="matrix(0.05,0,0,0.05,69.85000000000001,0)" xlink:href="#bu"/></g><g id="m"><use transform="matrix(0.05,0,0,0.05,0,0)" xlink:href="#bn"/><use transform="matrix(0.05,0,0,0.05,14,0)" xlink:href="#bo"/><use transform="matrix(0.05,0,0,0.05,21,0)" xlink:href="#bp"/><use transform="matrix(0.05,0,0,0.05,26,0)" xlink:href="#bq"/></g><path fill="#333" d="M175 0L67-191c6 58 2 128 3 191H24v-248h59L193-55c-6-58-2-129-3-193h46V0h-61" id="bJ"/><path fill="#333" d="M199 0l-22-63H83L61 0H9l90-248h61L250 0h-51zm-33-102l-36-108c-10 38-24 72-36 108h72" id="bK"/><path fill="#333" d="M169-182c-1-43-94-46-97-3 18 66 151 10 154 114 3 95-165 93-204 36-6-8-10-19-12-30l50-8c3 46 112 56 116 5-17-69-150-10-154-114-4-87 153-88 188-35 5 8 8 18 10 28" id="bL"/><g id="n"><use transform="matrix(0.05,0,0,0.05,0,0)" xlink:href="#bJ"/><use transform="matrix(0.05,0,0,0.05,12.950000000000001,0)" xlink:href="#bK"/><use transform="matrix(0.05,0,0,0.05,25.900000000000002,0)" xlink:href="#bL"/><use transform="matrix(0.05,0,0,0.05,37.900000000000006,0)" xlink:href="#bK"/></g><path fill="#333" d="M186 0v-106H76V0H24v-248h52v99h110v-99h50V0h-50" id="bM"/><path fill="#333" d="M24 0v-248h52v208h133V0H24" id="bN"/><g id="o"><use transform="matrix(0.05,0,0,0.05,0,0)" xlink:href="#bM"/><use transform="matrix(0.05,0,0,0.05,12.950000000000001,0)" xlink:href="#bN"/><use transform="matrix(0.05,0,0,0.05,23.900000000000002,0)" xlink:href="#bL"/></g><path fill="#333" d="M137-138c1-29-70-34-71-4 15 46 118 7 119 86 1 83-164 76-172 9l43-7c4 19 20 25 44 25 33 8 57-30 24-41C81-84 22-81 20-136c-2-80 154-74 161-7" id="bO"/><path fill="#333" d="M185-48c-13 30-37 53-82 52C43 2 14-33 14-96s30-98 90-98c62 0 83 45 84 108H66c0 31 8 55 39 56 18 0 30-7 34-22zm-45-69c5-46-57-63-70-21-2 6-4 13-4 21h74" id="bP"/><path fill="#333" d="M128 0H69L1-190h53L99-40l48-150h52" id="bQ"/><g id="p"><use transform="matrix(0.05,0,0,0.05,0,0)" xlink:href="#bO"/><use transform="matrix(0.05,0,0,0.05,10,0)" xlink:href="#bP"/><use transform="matrix(0.05,0,0,0.05,20,0)" xlink:href="#bo"/><use transform="matrix(0.05,0,0,0.05,27,0)" xlink:href="#bQ"/><use transform="matrix(0.05,0,0,0.05,37,0)" xlink:href="#bP"/><use transform="matrix(0.05,0,0,0.05,47,0)" xlink:href="#bo"/></g><path fill="#333" d="M177-190C167-65 218 103 67 71c-23-6-38-20-44-43l32-5c15 47 100 32 89-28v-30C133-14 115 1 83 1 29 1 15-40 15-95c0-56 16-97 71-98 29-1 48 16 59 35 1-10 0-23 2-32h30zM94-22c36 0 50-32 50-73 0-42-14-75-50-75-39 0-46 34-46 75s6 73 46 73" id="bR"/><path fill="#333" d="M115-194c53 0 69 39 70 98 0 66-23 100-70 100C84 3 66-7 56-30L54 0H23l1-261h32v101c10-23 28-34 59-34zm-8 174c40 0 45-34 45-75 0-40-5-75-45-74-42 0-51 32-51 76 0 43 10 73 51 73" id="bS"/><g id="q"><use transform="matrix(0.05,0,0,0.05,0,0)" xlink:href="#bR"/><use transform="matrix(0.05,0,0,0.05,10,0)" xlink:href="#bm"/><use transform="matrix(0.05,0,0,0.05,13.949999999999998,0)" xlink:href="#br"/><use transform="matrix(0.05,0,0,0.05,23.95,0)" xlink:href="#bS"/><use transform="matrix(0.05,0,0,0.05,33.95,0)" xlink:href="#bh"/><use transform="matrix(0.05,0,0,0.05,43.95,0)" xlink:href="#bm"/></g><g id="r"><use transform="matrix(0.05,0,0,0.05,0,0)" xlink:href="#bg"/><use transform="matrix(0.05,0,0,0.05,12.950000000000001,0)" xlink:href="#be"/><use transform="matrix(0.05,0,0,0.05,24.950000000000003,0)" xlink:href="#aY"/><use transform="matrix(0.05,0,0,0.05,36.95,0)" xlink:href="#be"/></g><g id="s"><use transform="matrix(0.05,0,0,0.05,0,0)" xlink:href="#bF"/><use transform="matrix(0.05,0,0,0.05,12.950000000000001,0)" xlink:href="#bb"/><use transform="matrix(0.05,0,0,0.05,25.900000000000002,0)" xlink:href="#bG"/><use transform="matrix(0.05,0,0,0.05,36.85,0)" xlink:href="#bH"/></g><path fill="#333" d="M-5 72V49h209v23H-5" id="bT"/><path fill="#333" d="M143 0L79-87 56-68V0H24v-261h32v163l83-92h37l-77 82L181 0h-38" id="bU"/><path fill="#333" d="M210-169c-67 3-38 105-44 169h-31v-121c0-29-5-50-35-48C34-165 62-65 56 0H25l-1-190h30c1 10-1 24 2 32 10-44 99-50 107 0 11-21 27-35 58-36 85-2 47 119 55 194h-31v-121c0-29-5-49-35-48" id="bV"/><g id="t"><use transform="matrix(0.05,0,0,0.05,0,0)" xlink:href="#bu"/><use transform="matrix(0.05,0,0,0.05,10,0)" xlink:href="#br"/><use transform="matrix(0.05,0,0,0.05,20,0)" xlink:href="#bs"/><use transform="matrix(0.05,0,0,0.05,32.95,0)" xlink:href="#bt"/><use transform="matrix(0.05,0,0,0.05,42.95,0)" xlink:href="#bm"/><use transform="matrix(0.05,0,0,0.05,46.900000000000006,0)" xlink:href="#br"/><use transform="matrix(0.05,0,0,0.05,56.900000000000006,0)" xlink:href="#bh"/><use transform="matrix(0.05,0,0,0.05,66.9,0)" xlink:href="#bu"/><use transform="matrix(0.05,0,0,0.05,76.9,0)" xlink:href="#bT"/><use transform="matrix(0.05,0,0,0.05,86.9,0)" xlink:href="#bU"/><use transform="matrix(0.05,0,0,0.05,95.9,0)" xlink:href="#bV"/><use transform="matrix(0.05,0,0,0.05,110.85000000000001,0)" xlink:href="#bm"/></g><path fill="#333" d="M85 4C-2 5 27-109 22-190h50c7 57-23 150 33 157 60-5 35-97 40-157h50l1 190h-47c-2-12 1-28-3-38-12 25-28 42-61 42" id="bW"/><path fill="#333" d="M135-194c87-1 58 113 63 194h-50c-7-57 23-157-34-157-59 0-34 97-39 157H25l-1-190h47c2 12-1 28 3 38 12-26 28-41 61-42" id="bX"/><path fill="#333" d="M33-154v-36h34v36H33zM33 0v-36h34V0H33" id="bY"/><g id="u"><use transform="matrix(0.03703703703703704,0,0,0.03703703703703704,0,0)" xlink:href="#bC"/><use transform="matrix(0.03703703703703704,0,0,0.03703703703703704,9.592592592592593,0)" xlink:href="#bP"/><use transform="matrix(0.03703703703703704,0,0,0.03703703703703704,17,0)" xlink:href="#bx"/><use transform="matrix(0.03703703703703704,0,0,0.03703703703703704,21.407407407407412,0)" xlink:href="#bW"/><use transform="matrix(0.03703703703703704,0,0,0.03703703703703704,29.51851851851852,0)" xlink:href="#bo"/><use transform="matrix(0.03703703703703704,0,0,0.03703703703703704,34.7037037037037,0)" xlink:href="#bX"/><use transform="matrix(0.03703703703703704,0,0,0.03703703703703704,42.814814814814824,0)" xlink:href="#bO"/><use transform="matrix(0.03703703703703704,0,0,0.03703703703703704,50.22222222222223,0)" xlink:href="#bY"/></g><path fill="#333" d="M266 0h-40l-56-210L115 0H75L2-248h35L96-30l15-64 43-154h32l59 218 59-218h35" id="bZ"/><g id="v"><use transform="matrix(0.03703703703703704,0,0,0.03703703703703704,0,0)" xlink:href="#bZ"/><use transform="matrix(0.03703703703703704,0,0,0.03703703703703704,12.296296296296298,0)" xlink:href="#br"/><use transform="matrix(0.03703703703703704,0,0,0.03703703703703704,19.703703703703706,0)" xlink:href="#bA"/><use transform="matrix(0.03703703703703704,0,0,0.03703703703703704,24.111111111111114,0)" xlink:href="#bm"/><use transform="matrix(0.03703703703703704,0,0,0.03703703703703704,27.03703703703704,0)" xlink:href="#bu"/></g><path fill="#333" d="M127-220V0H93v-220H8v-28h204v28h-85" id="ca"/><g id="w"><use transform="matrix(0.03703703703703704,0,0,0.03703703703703704,0,0)" xlink:href="#aX"/><use transform="matrix(0.03703703703703704,0,0,0.03703703703703704,9.592592592592593,0)" xlink:href="#ca"/><use transform="matrix(0.03703703703703704,0,0,0.03703703703703704,17.703703703703706,0)" xlink:href="#bd"/></g><path fill="#333" d="M24-231v-30h32v30H24zM24 0v-190h32V0H24" id="cb"/><g id="x"><use transform="matrix(0.03703703703703704,0,0,0.03703703703703704,0,0)" xlink:href="#bR"/><use transform="matrix(0.03703703703703704,0,0,0.03703703703703704,7.407407407407408,0)" xlink:href="#bA"/><use transform="matrix(0.03703703703703704,0,0,0.03703703703703704,11.814814814814817,0)" xlink:href="#cb"/><use transform="matrix(0.03703703703703704,0,0,0.03703703703703704,14.740740740740744,0)" xlink:href="#bu"/></g><g id="y"><use transform="matrix(0.03703703703703704,0,0,0.03703703703703704,0,0)" xlink:href="#cb"/><use transform="matrix(0.03703703703703704,0,0,0.03703703703703704,2.9259259259259265,0)" xlink:href="#bt"/></g><path fill="#333" d="M33 0v-38h34V0H33" id="cc"/><g id="z"><use transform="matrix(0.03703703703703704,0,0,0.03703703703703704,0,0)" xlink:href="#cc"/><use transform="matrix(0.03703703703703704,0,0,0.03703703703703704,3.703703703703704,0)" xlink:href="#bU"/><use transform="matrix(0.03703703703703704,0,0,0.03703703703703704,10.370370370370372,0)" xlink:href="#bV"/><use transform="matrix(0.03703703703703704,0,0,0.03703703703703704,21.44444444444445,0)" xlink:href="#bm"/></g><path fill="#333" d="M101-234c-31-9-42 10-38 44h38v23H63V0H32v-167H5v-23h27c-7-52 17-82 69-68v24" id="cd"/><g id="A"><use transform="matrix(0.03703703703703704,0,0,0.03703703703703704,0,0)" xlink:href="#cd"/><use transform="matrix(0.03703703703703704,0,0,0.03703703703703704,3.703703703703704,0)" xlink:href="#br"/><use transform="matrix(0.03703703703703704,0,0,0.03703703703703704,11.111111111111112,0)" xlink:href="#bA"/><use transform="matrix(0.03703703703703704,0,0,0.03703703703703704,15.51851851851852,0)" xlink:href="#bV"/><use transform="matrix(0.03703703703703704,0,0,0.03703703703703704,26.592592592592595,0)" xlink:href="#bh"/><use transform="matrix(0.03703703703703704,0,0,0.03703703703703704,34,0)" xlink:href="#bi"/></g><path fill="#333" d="M140-251c80 0 125 45 125 126S219 4 139 4C58 4 15-44 15-125s44-126 125-126zm-1 214c52 0 73-35 73-88 0-50-21-86-72-86-52 0-73 35-73 86s22 88 72 88" id="ce"/><path fill="#333" d="M275 0h-61l-44-196L126 0H64L0-248h53L97-49l45-199h58l43 199 44-199h52" id="cf"/><g id="B"><use transform="matrix(0.03703703703703704,0,0,0.03703703703703704,0,0)" xlink:href="#bv"/><use transform="matrix(0.03703703703703704,0,0,0.03703703703703704,9.592592592592593,0)" xlink:href="#ce"/><use transform="matrix(0.03703703703703704,0,0,0.03703703703703704,19.962962962962965,0)" xlink:href="#cf"/><use transform="matrix(0.03703703703703704,0,0,0.03703703703703704,32.51851851851852,0)" xlink:href="#bJ"/><use transform="matrix(0.03703703703703704,0,0,0.03703703703703704,42.111111111111114,0)" xlink:href="#bN"/><use transform="matrix(0.03703703703703704,0,0,0.03703703703703704,50.22222222222223,0)" xlink:href="#ce"/><use transform="matrix(0.03703703703703704,0,0,0.03703703703703704,60.5925925925926,0)" xlink:href="#bK"/><use transform="matrix(0.03703703703703704,0,0,0.03703703703703704,70.18518518518519,0)" xlink:href="#bv"/></g><path fill="#333" d="M24 0v-248h52V0H24" id="cg"/><g id="C"><use transform="matrix(0.03703703703703704,0,0,0.03703703703703704,0,0)" xlink:href="#bn"/><use transform="matrix(0.03703703703703704,0,0,0.03703703703703704,10.370370370370372,0)" xlink:href="#bC"/><use transform="matrix(0.03703703703703704,0,0,0.03703703703703704,19.962962962962965,0)" xlink:href="#cg"/><use transform="matrix(0.03703703703703704,0,0,0.03703703703703704,23.66666666666667,0)" xlink:href="#bv"/></g><path fill="#333" d="M108 0H70L1-190h34L89-25l56-165h34" id="ch"/><g id="D"><use transform="matrix(0.05,0,0,0.05,0,0)" xlink:href="#bR"/><use transform="matrix(0.05,0,0,0.05,10,0)" xlink:href="#bk"/><use transform="matrix(0.05,0,0,0.05,20,0)" xlink:href="#bi"/><use transform="matrix(0.05,0,0,0.05,25,0)" xlink:href="#bT"/><use transform="matrix(0.05,0,0,0.05,35,0)" xlink:href="#bh"/><use transform="matrix(0.05,0,0,0.05,45,0)" xlink:href="#ch"/><use transform="matrix(0.05,0,0,0.05,54,0)" xlink:href="#bh"/><use transform="matrix(0.05,0,0,0.05,64,0)" xlink:href="#cb"/><use transform="matrix(0.05,0,0,0.05,67.95,0)" xlink:href="#bm"/><use transform="matrix(0.05,0,0,0.05,71.9,0)" xlink:href="#bh"/><use transform="matrix(0.05,0,0,0.05,81.9,0)" xlink:href="#bS"/><use transform="matrix(0.05,0,0,0.05,91.9,0)" xlink:href="#bm"/><use transform="matrix(0.05,0,0,0.05,95.85000000000001,0)" xlink:href="#bk"/><use transform="matrix(0.05,0,0,0.05,105.85000000000001,0)" xlink:href="#bT"/><use transform="matrix(0.05,0,0,0.05,115.85000000000001,0)" xlink:href="#bu"/><use transform="matrix(0.05,0,0,0.05,125.85000000000001,0)" xlink:href="#bh"/><use transform="matrix(0.05,0,0,0.05,135.85000000000002,0)" xlink:href="#bi"/><use transform="matrix(0.05,0,0,0.05,140.85000000000002,0)" xlink:href="#bh"/><use transform="matrix(0.05,0,0,0.05,150.85000000000002,0)" xlink:href="#bj"/><use transform="matrix(0.05,0,0,0.05,159.85000000000002,0)" xlink:href="#bk"/><use transform="matrix(0.05,0,0,0.05,169.85000000000002,0)" xlink:href="#bi"/><use transform="matrix(0.05,0,0,0.05,174.85000000000002,0)" xlink:href="#bj"/><use transform="matrix(0.05,0,0,0.05,183.85000000000002,0)" xlink:href="#bT"/><use transform="matrix(0.05,0,0,0.05,193.85000000000002,0)" xlink:href="#cd"/><use transform="matrix(0.05,0,0,0.05,198.85000000000002,0)" xlink:href="#bA"/><use transform="matrix(0.05,0,0,0.05,204.8,0)" xlink:href="#br"/><use transform="matrix(0.05,0,0,0.05,214.8,0)" xlink:href="#bV"/></g><path fill="#333" d="M106-169C34-169 62-67 57 0H25v-261h32l-1 103c12-21 28-36 61-36 89 0 53 116 60 194h-32v-121c2-32-8-49-39-48" id="ci"/><path fill="#333" d="M115-194c55 1 70 41 70 98S169 2 115 4C84 4 66-9 55-30l1 105H24l-1-265h31l2 30c10-21 28-34 59-34zm-8 174c40 0 45-34 45-75s-6-73-45-74c-42 0-51 32-51 76 0 43 10 73 51 73" id="cj"/><g id="E"><use transform="matrix(0.05,0,0,0.05,0,0)" xlink:href="#bj"/><use transform="matrix(0.05,0,0,0.05,9,0)" xlink:href="#ci"/><use transform="matrix(0.05,0,0,0.05,19,0)" xlink:href="#bh"/><use transform="matrix(0.05,0,0,0.05,29,0)" xlink:href="#cj"/><use transform="matrix(0.05,0,0,0.05,39,0)" xlink:href="#bk"/><use transform="matrix(0.05,0,0,0.05,49,0)" xlink:href="#bE"/><use transform="matrix(0.05,0,0,0.05,54.95,0)" xlink:href="#bI"/></g><path fill="#333" d="M24-248c93 1 206-16 204 79-1 75-69 88-152 82V0H24v-248zm52 121c47 0 100 7 100-41 0-47-54-39-100-39v80" id="ck"/><path fill="#333" d="M220-157c-53 9-28 100-34 157h-49v-107c1-27-5-49-29-50C55-147 81-57 75 0H25l-1-190h47c2 12-1 28 3 38 10-53 101-56 108 0 13-22 24-43 59-42 82 1 51 116 57 194h-49v-107c-1-25-5-48-29-50" id="cl"/><g id="F"><use transform="matrix(0.03703703703703704,0,0,0.03703703703703704,0,0)" xlink:href="#ck"/><use transform="matrix(0.03703703703703704,0,0,0.03703703703703704,8.88888888888889,0)" xlink:href="#bw"/><use transform="matrix(0.03703703703703704,0,0,0.03703703703703704,16.296296296296298,0)" xlink:href="#bo"/><use transform="matrix(0.03703703703703704,0,0,0.03703703703703704,21.481481481481485,0)" xlink:href="#bw"/><use transform="matrix(0.03703703703703704,0,0,0.03703703703703704,28.888888888888893,0)" xlink:href="#cl"/><use transform="matrix(0.03703703703703704,0,0,0.03703703703703704,40.74074074074075,0)" xlink:href="#bP"/><use transform="matrix(0.03703703703703704,0,0,0.03703703703703704,48.14814814814815,0)" xlink:href="#bx"/><use transform="matrix(0.03703703703703704,0,0,0.03703703703703704,52.55555555555556,0)" xlink:href="#bP"/><use transform="matrix(0.03703703703703704,0,0,0.03703703703703704,59.96296296296296,0)" xlink:href="#bo"/><use transform="matrix(0.03703703703703704,0,0,0.03703703703703704,65.14814814814815,0)" xlink:href="#bO"/><use transform="matrix(0.03703703703703704,0,0,0.03703703703703704,72.55555555555556,0)" xlink:href="#bY"/></g><g id="G"><use transform="matrix(0.03703703703703704,0,0,0.03703703703703704,0,0)" xlink:href="#aY"/><use transform="matrix(0.03703703703703704,0,0,0.03703703703703704,8.88888888888889,0)" xlink:href="#ci"/><use transform="matrix(0.03703703703703704,0,0,0.03703703703703704,16.296296296296298,0)" xlink:href="#bh"/><use transform="matrix(0.03703703703703704,0,0,0.03703703703703704,23.703703703703706,0)" xlink:href="#cj"/><use transform="matrix(0.03703703703703704,0,0,0.03703703703703704,31.111111111111114,0)" xlink:href="#bk"/></g><g id="H"><use transform="matrix(0.03703703703703704,0,0,0.03703703703703704,0,0)" xlink:href="#bb"/><use transform="matrix(0.03703703703703704,0,0,0.03703703703703704,9.592592592592593,0)" xlink:href="#bh"/><use transform="matrix(0.03703703703703704,0,0,0.03703703703703704,17,0)" xlink:href="#bi"/><use transform="matrix(0.03703703703703704,0,0,0.03703703703703704,20.703703703703702,0)" xlink:href="#bk"/></g><path fill="#333" d="M30-248c87 1 191-15 191 75 0 78-77 80-158 76V0H30v-248zm33 125c57 0 124 11 124-50 0-59-68-47-124-48v98" id="cm"/><g id="I"><use transform="matrix(0.03703703703703704,0,0,0.03703703703703704,0,0)" xlink:href="#cm"/><use transform="matrix(0.03703703703703704,0,0,0.03703703703703704,8.88888888888889,0)" xlink:href="#bA"/><use transform="matrix(0.03703703703703704,0,0,0.03703703703703704,13.296296296296298,0)" xlink:href="#br"/><use transform="matrix(0.03703703703703704,0,0,0.03703703703703704,20.703703703703706,0)" xlink:href="#bu"/><use transform="matrix(0.03703703703703704,0,0,0.03703703703703704,28.111111111111114,0)" xlink:href="#bz"/><use transform="matrix(0.03703703703703704,0,0,0.03703703703703704,35.51851851851852,0)" xlink:href="#bl"/><use transform="matrix(0.03703703703703704,0,0,0.03703703703703704,42.18518518518519,0)" xlink:href="#bi"/></g><g id="J"><use transform="matrix(0.03703703703703704,0,0,0.03703703703703704,0,0)" xlink:href="#bu"/><use transform="matrix(0.03703703703703704,0,0,0.03703703703703704,7.407407407407408,0)" xlink:href="#bh"/><use transform="matrix(0.03703703703703704,0,0,0.03703703703703704,14.814814814814817,0)" xlink:href="#bi"/><use transform="matrix(0.03703703703703704,0,0,0.03703703703703704,18.51851851851852,0)" xlink:href="#bh"/><use transform="matrix(0.03703703703703704,0,0,0.03703703703703704,25.92592592592593,0)" xlink:href="#cd"/><use transform="matrix(0.03703703703703704,0,0,0.03703703703703704,29.629629629629633,0)" xlink:href="#bA"/><use transform="matrix(0.03703703703703704,0,0,0.03703703703703704,34.03703703703704,0)" xlink:href="#bh"/><use transform="matrix(0.03703703703703704,0,0,0.03703703703703704,41.44444444444444,0)" xlink:href="#bV"/><use transform="matrix(0.03703703703703704,0,0,0.03703703703703704,52.51851851851852,0)" xlink:href="#bk"/></g><g id="K"><use transform="matrix(0.03703703703703704,0,0,0.03703703703703704,0,0)" xlink:href="#br"/><use transform="matrix(0.03703703703703704,0,0,0.03703703703703704,7.407407407407408,0)" xlink:href="#cd"/></g><g id="L"><use transform="matrix(0.03703703703703704,0,0,0.03703703703703704,0,0)" xlink:href="#bV"/><use transform="matrix(0.03703703703703704,0,0,0.03703703703703704,11.074074074074076,0)" xlink:href="#bh"/><use transform="matrix(0.03703703703703704,0,0,0.03703703703703704,18.481481481481485,0)" xlink:href="#bi"/><use transform="matrix(0.03703703703703704,0,0,0.03703703703703704,22.185185185185194,0)" xlink:href="#bl"/><use transform="matrix(0.03703703703703704,0,0,0.03703703703703704,28.85185185185186,0)" xlink:href="#ci"/><use transform="matrix(0.03703703703703704,0,0,0.03703703703703704,36.25925925925927,0)" xlink:href="#cb"/><use transform="matrix(0.03703703703703704,0,0,0.03703703703703704,39.18518518518519,0)" xlink:href="#bt"/><use transform="matrix(0.03703703703703704,0,0,0.03703703703703704,46.592592592592595,0)" xlink:href="#bR"/></g><path fill="#333" d="M68-38c1 34 0 65-14 84H32c9-13 17-26 17-46H33v-38h35" id="cn"/><g id="M"><use transform="matrix(0.03703703703703704,0,0,0.03703703703703704,0,0)" xlink:href="#bi"/><use transform="matrix(0.03703703703703704,0,0,0.03703703703703704,3.703703703703704,0)" xlink:href="#cb"/><use transform="matrix(0.03703703703703704,0,0,0.03703703703703704,6.629629629629631,0)" xlink:href="#bm"/><use transform="matrix(0.03703703703703704,0,0,0.03703703703703704,9.555555555555557,0)" xlink:href="#bk"/><use transform="matrix(0.03703703703703704,0,0,0.03703703703703704,16.962962962962965,0)" xlink:href="#bj"/><use transform="matrix(0.03703703703703704,0,0,0.03703703703703704,23.629629629629633,0)" xlink:href="#cn"/></g><g id="N"><use transform="matrix(0.03703703703703704,0,0,0.03703703703703704,0,0)" xlink:href="#bu"/><use transform="matrix(0.03703703703703704,0,0,0.03703703703703704,7.407407407407408,0)" xlink:href="#bh"/><use transform="matrix(0.03703703703703704,0,0,0.03703703703703704,14.814814814814817,0)" xlink:href="#bi"/><use transform="matrix(0.03703703703703704,0,0,0.03703703703703704,18.51851851851852,0)" xlink:href="#bk"/></g><g id="O"><use transform="matrix(0.03703703703703704,0,0,0.03703703703703704,0,0)" xlink:href="#bh"/><use transform="matrix(0.03703703703703704,0,0,0.03703703703703704,7.407407407407408,0)" xlink:href="#bt"/><use transform="matrix(0.03703703703703704,0,0,0.03703703703703704,14.814814814814817,0)" xlink:href="#bu"/></g><path fill="#333" d="M30 0v-248h33v221h125V0H30" id="co"/><g id="P"><use transform="matrix(0.03703703703703704,0,0,0.03703703703703704,0,0)" xlink:href="#aX"/><use transform="matrix(0.03703703703703704,0,0,0.03703703703703704,9.592592592592593,0)" xlink:href="#ba"/><use transform="matrix(0.03703703703703704,0,0,0.03703703703703704,19.185185185185187,0)" xlink:href="#co"/></g><path fill="#333" d="M136-208V0H84v-208H4v-40h212v40h-80" id="cp"/><g id="Q"><use transform="matrix(0.03703703703703704,0,0,0.03703703703703704,0,0)" xlink:href="#bL"/><use transform="matrix(0.03703703703703704,0,0,0.03703703703703704,8.88888888888889,0)" xlink:href="#ck"/><use transform="matrix(0.03703703703703704,0,0,0.03703703703703704,16.77777777777778,0)" xlink:href="#bK"/><use transform="matrix(0.03703703703703704,0,0,0.03703703703703704,25.370370370370374,0)" xlink:href="#cp"/><use transform="matrix(0.03703703703703704,0,0,0.03703703703703704,33.48148148148149,0)" xlink:href="#cg"/><use transform="matrix(0.03703703703703704,0,0,0.03703703703703704,37.18518518518519,0)" xlink:href="#bK"/><use transform="matrix(0.03703703703703704,0,0,0.03703703703703704,46.777777777777786,0)" xlink:href="#bN"/></g><path fill="#333" d="M24 0v-248h195v40H76v63h132v40H76v65h150V0H24" id="cq"/><path fill="#333" d="M67-125c0 53 21 87 73 88 37 1 54-22 65-47l45 17C233-25 199 4 140 4 58 4 20-42 15-125 8-235 124-281 211-232c18 10 29 29 36 50l-46 12c-8-25-30-41-62-41-52 0-71 34-72 86" id="cr"/><g id="R"><use transform="matrix(0.03703703703703704,0,0,0.03703703703703704,0,0)" xlink:href="#cg"/><use transform="matrix(0.03703703703703704,0,0,0.03703703703703704,3.703703703703704,0)" xlink:href="#bJ"/><use transform="matrix(0.03703703703703704,0,0,0.03703703703703704,13.296296296296298,0)" xlink:href="#cp"/><use transform="matrix(0.03703703703703704,0,0,0.03703703703703704,21.407407407407412,0)" xlink:href="#cq"/><use transform="matrix(0.03703703703703704,0,0,0.03703703703703704,30.2962962962963,0)" xlink:href="#bC"/><use transform="matrix(0.03703703703703704,0,0,0.03703703703703704,39.88888888888889,0)" xlink:href="#bL"/><use transform="matrix(0.03703703703703704,0,0,0.03703703703703704,48.777777777777786,0)" xlink:href="#cq"/><use transform="matrix(0.03703703703703704,0,0,0.03703703703703704,57.66666666666667,0)" xlink:href="#cr"/><use transform="matrix(0.03703703703703704,0,0,0.03703703703703704,67.25925925925927,0)" xlink:href="#cp"/><use transform="matrix(0.03703703703703704,0,0,0.03703703703703704,75.37037037037038,0)" xlink:href="#cg"/><use transform="matrix(0.03703703703703704,0,0,0.03703703703703704,79.07407407407409,0)" xlink:href="#ce"/><use transform="matrix(0.03703703703703704,0,0,0.03703703703703704,89.44444444444446,0)" xlink:href="#bJ"/></g><g id="S"><use transform="matrix(0.05,0,0,0.05,0,0)" xlink:href="#bV"/><use transform="matrix(0.05,0,0,0.05,14.950000000000001,0)" xlink:href="#bh"/><use transform="matrix(0.05,0,0,0.05,24.950000000000003,0)" xlink:href="#bU"/><use transform="matrix(0.05,0,0,0.05,33.95,0)" xlink:href="#bk"/><use transform="matrix(0.05,0,0,0.05,43.95,0)" xlink:href="#bT"/><use transform="matrix(0.05,0,0,0.05,53.95,0)" xlink:href="#bi"/><use transform="matrix(0.05,0,0,0.05,58.95,0)" xlink:href="#cb"/><use transform="matrix(0.05,0,0,0.05,62.900000000000006,0)" xlink:href="#bm"/><use transform="matrix(0.05,0,0,0.05,66.85000000000001,0)" xlink:href="#bk"/><use transform="matrix(0.05,0,0,0.05,76.85000000000001,0)" xlink:href="#bj"/><use transform="matrix(0.05,0,0,0.05,85.85000000000001,0)" xlink:href="#bT"/><use transform="matrix(0.05,0,0,0.05,95.85000000000001,0)" xlink:href="#bu"/><use transform="matrix(0.05,0,0,0.05,105.85000000000001,0)" xlink:href="#bh"/><use transform="matrix(0.05,0,0,0.05,115.85000000000001,0)" xlink:href="#bi"/><use transform="matrix(0.05,0,0,0.05,120.85000000000001,0)" xlink:href="#bh"/><use transform="matrix(0.05,0,0,0.05,130.85000000000002,0)" xlink:href="#bj"/><use transform="matrix(0.05,0,0,0.05,139.85000000000002,0)" xlink:href="#bk"/><use transform="matrix(0.05,0,0,0.05,149.85000000000002,0)" xlink:href="#bi"/><use transform="matrix(0.05,0,0,0.05,154.85000000000002,0)" xlink:href="#bE"/><use transform="matrix(0.05,0,0,0.05,160.8,0)" xlink:href="#bI"/></g><g id="T"><use transform="matrix(0.03703703703703704,0,0,0.03703703703703704,0,0)" xlink:href="#ba"/><use transform="matrix(0.03703703703703704,0,0,0.03703703703703704,9.592592592592593,0)" xlink:href="#bc"/><use transform="matrix(0.03703703703703704,0,0,0.03703703703703704,19.962962962962965,0)" xlink:href="#bf"/></g><g id="U"><use transform="matrix(0.03703703703703704,0,0,0.03703703703703704,0,0)" xlink:href="#cj"/><use transform="matrix(0.03703703703703704,0,0,0.03703703703703704,7.407407407407408,0)" xlink:href="#br"/><use transform="matrix(0.03703703703703704,0,0,0.03703703703703704,14.814814814814817,0)" xlink:href="#bm"/><use transform="matrix(0.03703703703703704,0,0,0.03703703703703704,17.740740740740744,0)" xlink:href="#bB"/><use transform="matrix(0.03703703703703704,0,0,0.03703703703703704,24.407407407407412,0)" xlink:href="#bR"/><use transform="matrix(0.03703703703703704,0,0,0.03703703703703704,31.81481481481482,0)" xlink:href="#br"/><use transform="matrix(0.03703703703703704,0,0,0.03703703703703704,39.22222222222223,0)" xlink:href="#bt"/></g><g id="V"><use transform="matrix(0.03703703703703704,0,0,0.03703703703703704,0,0)" xlink:href="#bb"/><use transform="matrix(0.03703703703703704,0,0,0.03703703703703704,9.592592592592593,0)" xlink:href="#bh"/><use transform="matrix(0.03703703703703704,0,0,0.03703703703703704,17,0)" xlink:href="#bi"/><use transform="matrix(0.03703703703703704,0,0,0.03703703703703704,20.703703703703702,0)" xlink:href="#bk"/><use transform="matrix(0.03703703703703704,0,0,0.03703703703703704,28.11111111111111,0)" xlink:href="#bE"/><use transform="matrix(0.03703703703703704,0,0,0.03703703703703704,32.51851851851852,0)" xlink:href="#bj"/><use transform="matrix(0.03703703703703704,0,0,0.03703703703703704,39.18518518518519,0)" xlink:href="#bI"/></g><g id="W"><use transform="matrix(0.03703703703703704,0,0,0.03703703703703704,0,0)" xlink:href="#bC"/><use transform="matrix(0.03703703703703704,0,0,0.03703703703703704,9.592592592592593,0)" xlink:href="#bP"/><use transform="matrix(0.03703703703703704,0,0,0.03703703703703704,17,0)" xlink:href="#bx"/><use transform="matrix(0.03703703703703704,0,0,0.03703703703703704,21.407407407407412,0)" xlink:href="#bW"/><use transform="matrix(0.03703703703703704,0,0,0.03703703703703704,29.51851851851852,0)" xlink:href="#bo"/><use transform="matrix(0.03703703703703704,0,0,0.03703703703703704,34.7037037037037,0)" xlink:href="#bX"/><use transform="matrix(0.03703703703703704,0,0,0.03703703703703704,42.814814814814824,0)" xlink:href="#bO"/><use transform="matrix(0.03703703703703704,0,0,0.03703703703703704,50.22222222222223,0)" xlink:href="#bY"/></g><g id="X"><use transform="matrix(0.03703703703703704,0,0,0.03703703703703704,0,0)" xlink:href="#bm"/><use transform="matrix(0.03703703703703704,0,0,0.03703703703703704,2.9259259259259265,0)" xlink:href="#cb"/><use transform="matrix(0.03703703703703704,0,0,0.03703703703703704,5.851851851851853,0)" xlink:href="#bj"/><use transform="matrix(0.03703703703703704,0,0,0.03703703703703704,12.51851851851852,0)" xlink:href="#bi"/></g><g id="Y"><use transform="matrix(0.03703703703703704,0,0,0.03703703703703704,0,0)" xlink:href="#br"/><use transform="matrix(0.03703703703703704,0,0,0.03703703703703704,7.407407407407408,0)" xlink:href="#cd"/></g><g id="Z"><use transform="matrix(0.03703703703703704,0,0,0.03703703703703704,0,0)" xlink:href="#bu"/><use transform="matrix(0.03703703703703704,0,0,0.03703703703703704,7.407407407407408,0)" xlink:href="#bh"/><use transform="matrix(0.03703703703703704,0,0,0.03703703703703704,14.814814814814817,0)" xlink:href="#bi"/><use transform="matrix(0.03703703703703704,0,0,0.03703703703703704,18.51851851851852,0)" xlink:href="#bh"/><use transform="matrix(0.03703703703703704,0,0,0.03703703703703704,25.92592592592593,0)" xlink:href="#cd"/><use transform="matrix(0.03703703703703704,0,0,0.03703703703703704,29.629629629629633,0)" xlink:href="#bA"/><use transform="matrix(0.03703703703703704,0,0,0.03703703703703704,34.03703703703704,0)" xlink:href="#bh"/><use transform="matrix(0.03703703703703704,0,0,0.03703703703703704,41.44444444444444,0)" xlink:href="#bV"/><use transform="matrix(0.03703703703703704,0,0,0.03703703703703704,52.51851851851852,0)" xlink:href="#bk"/><use transform="matrix(0.03703703703703704,0,0,0.03703703703703704,59.925925925925924,0)" xlink:href="#bj"/></g><g id="aa"><use transform="matrix(0.03703703703703704,0,0,0.03703703703703704,0,0)" xlink:href="#cd"/><use transform="matrix(0.03703703703703704,0,0,0.03703703703703704,3.703703703703704,0)" xlink:href="#br"/><use transform="matrix(0.03703703703703704,0,0,0.03703703703703704,11.111111111111112,0)" xlink:href="#bA"/></g><g id="ab"><use transform="matrix(0.03703703703703704,0,0,0.03703703703703704,0,0)" xlink:href="#bk"/><use transform="matrix(0.03703703703703704,0,0,0.03703703703703704,7.407407407407408,0)" xlink:href="#bh"/><use transform="matrix(0.03703703703703704,0,0,0.03703703703703704,14.814814814814817,0)" xlink:href="#bl"/><use transform="matrix(0.03703703703703704,0,0,0.03703703703703704,21.481481481481485,0)" xlink:href="#ci"/></g><g id="ac"><use transform="matrix(0.03703703703703704,0,0,0.03703703703703704,0,0)" xlink:href="#bu"/><use transform="matrix(0.03703703703703704,0,0,0.03703703703703704,7.407407407407408,0)" xlink:href="#bh"/><use transform="matrix(0.03703703703703704,0,0,0.03703703703703704,14.814814814814817,0)" xlink:href="#bi"/><use transform="matrix(0.03703703703703704,0,0,0.03703703703703704,18.51851851851852,0)" xlink:href="#bk"/></g><g id="ad"><use transform="matrix(0.03703703703703704,0,0,0.03703703703703704,0,0)" xlink:href="#bs"/><use transform="matrix(0.03703703703703704,0,0,0.03703703703703704,9.592592592592593,0)" xlink:href="#cb"/><use transform="matrix(0.03703703703703704,0,0,0.03703703703703704,12.518518518518517,0)" xlink:href="#bi"/><use transform="matrix(0.03703703703703704,0,0,0.03703703703703704,16.22222222222222,0)" xlink:href="#ci"/></g><path fill="#333" d="M27 0v-27h64v-190l-56 39v-29l58-41h29v221h61V0H27" id="cs"/><g id="ae"><use transform="matrix(0.03703703703703704,0,0,0.03703703703703704,0,0)" xlink:href="#cs"/><use transform="matrix(0.03703703703703704,0,0,0.03703703703703704,7.407407407407408,0)" xlink:href="#cc"/></g><g id="af"><use transform="matrix(0.03703703703703704,0,0,0.03703703703703704,0,0)" xlink:href="#cm"/><use transform="matrix(0.03703703703703704,0,0,0.03703703703703704,8.88888888888889,0)" xlink:href="#bA"/><use transform="matrix(0.03703703703703704,0,0,0.03703703703703704,13.296296296296298,0)" xlink:href="#br"/><use transform="matrix(0.03703703703703704,0,0,0.03703703703703704,20.703703703703706,0)" xlink:href="#bu"/><use transform="matrix(0.03703703703703704,0,0,0.03703703703703704,28.111111111111114,0)" xlink:href="#bz"/><use transform="matrix(0.03703703703703704,0,0,0.03703703703703704,35.51851851851852,0)" xlink:href="#bl"/><use transform="matrix(0.03703703703703704,0,0,0.03703703703703704,42.18518518518519,0)" xlink:href="#bi"/></g><g id="ag"><use transform="matrix(0.03703703703703704,0,0,0.03703703703703704,0,0)" xlink:href="#bi"/><use transform="matrix(0.03703703703703704,0,0,0.03703703703703704,3.703703703703704,0)" xlink:href="#bB"/><use transform="matrix(0.03703703703703704,0,0,0.03703703703703704,10.370370370370372,0)" xlink:href="#cj"/><use transform="matrix(0.03703703703703704,0,0,0.03703703703703704,17.77777777777778,0)" xlink:href="#bk"/></g><path fill="#333" d="M101-251c82-7 93 87 43 132L82-64C71-53 59-42 53-27h129V0H18c2-99 128-94 128-182 0-28-16-43-45-43s-46 15-49 41l-32-3c6-41 34-60 81-64" id="ct"/><g id="ah"><use transform="matrix(0.03703703703703704,0,0,0.03703703703703704,0,0)" xlink:href="#ct"/><use transform="matrix(0.03703703703703704,0,0,0.03703703703703704,7.407407407407408,0)" xlink:href="#cc"/></g><path fill="#333" d="M145-31C134-9 116 4 85 4 32 4 16-35 15-94c0-59 17-99 70-100 32-1 48 14 60 33 0-11-1-24 2-32h30l-1 268h-32zM93-21c41 0 51-33 51-76s-8-73-50-73c-40 0-46 35-46 75s5 74 45 74" id="cu"/><g id="ai"><use transform="matrix(0.03703703703703704,0,0,0.03703703703703704,0,0)" xlink:href="#be"/><use transform="matrix(0.03703703703703704,0,0,0.03703703703703704,8.88888888888889,0)" xlink:href="#bl"/><use transform="matrix(0.03703703703703704,0,0,0.03703703703703704,15.555555555555557,0)" xlink:href="#cu"/><use transform="matrix(0.03703703703703704,0,0,0.03703703703703704,22.962962962962965,0)" xlink:href="#bz"/><use transform="matrix(0.03703703703703704,0,0,0.03703703703703704,30.370370370370374,0)" xlink:href="#cb"/><use transform="matrix(0.03703703703703704,0,0,0.03703703703703704,33.2962962962963,0)" xlink:href="#bj"/><use transform="matrix(0.03703703703703704,0,0,0.03703703703703704,39.96296296296296,0)" xlink:href="#cb"/><use transform="matrix(0.03703703703703704,0,0,0.03703703703703704,42.888888888888886,0)" xlink:href="#bi"/><use transform="matrix(0.03703703703703704,0,0,0.03703703703703704,46.59259259259259,0)" xlink:href="#cb"/><use transform="matrix(0.03703703703703704,0,0,0.03703703703703704,49.518518518518505,0)" xlink:href="#br"/><use transform="matrix(0.03703703703703704,0,0,0.03703703703703704,56.925925925925924,0)" xlink:href="#bt"/></g><g id="aj"><use transform="matrix(0.03703703703703704,0,0,0.03703703703703704,0,0)" xlink:href="#bb"/><use transform="matrix(0.03703703703703704,0,0,0.03703703703703704,9.592592592592593,0)" xlink:href="#bh"/><use transform="matrix(0.03703703703703704,0,0,0.03703703703703704,17,0)" xlink:href="#bi"/><use transform="matrix(0.03703703703703704,0,0,0.03703703703703704,20.703703703703702,0)" xlink:href="#bk"/></g><path fill="#333" d="M126-127c33 6 58 20 58 59 0 88-139 92-164 29-3-8-5-16-6-25l32-3c6 27 21 44 54 44 32 0 52-15 52-46 0-38-36-46-79-43v-28c39 1 72-4 72-42 0-27-17-43-46-43-28 0-47 15-49 41l-32-3c6-42 35-63 81-64 48-1 79 21 79 65 0 36-21 52-52 59" id="cv"/><g id="ak"><use transform="matrix(0.03703703703703704,0,0,0.03703703703703704,0,0)" xlink:href="#cv"/><use transform="matrix(0.03703703703703704,0,0,0.03703703703703704,7.407407407407408,0)" xlink:href="#cc"/></g><g id="al"><use transform="matrix(0.03703703703703704,0,0,0.03703703703703704,0,0)" xlink:href="#aX"/><use transform="matrix(0.03703703703703704,0,0,0.03703703703703704,9.592592592592593,0)" xlink:href="#ca"/><use transform="matrix(0.03703703703703704,0,0,0.03703703703703704,17.703703703703706,0)" xlink:href="#bd"/></g><g id="am"><use transform="matrix(0.03703703703703704,0,0,0.03703703703703704,0,0)" xlink:href="#bi"/><use transform="matrix(0.03703703703703704,0,0,0.03703703703703704,3.703703703703704,0)" xlink:href="#cb"/><use transform="matrix(0.03703703703703704,0,0,0.03703703703703704,6.629629629629631,0)" xlink:href="#bm"/><use transform="matrix(0.03703703703703704,0,0,0.03703703703703704,9.555555555555557,0)" xlink:href="#bk"/></g><g id="an"><use transform="matrix(0.03703703703703704,0,0,0.03703703703703704,0,0)" xlink:href="#bH"/><use transform="matrix(0.03703703703703704,0,0,0.03703703703703704,7.407407407407408,0)" xlink:href="#cc"/></g><g id="ao"><use transform="matrix(0.03703703703703704,0,0,0.03703703703703704,0,0)" xlink:href="#bb"/><use transform="matrix(0.03703703703703704,0,0,0.03703703703703704,9.592592592592593,0)" xlink:href="#br"/><use transform="matrix(0.03703703703703704,0,0,0.03703703703703704,17,0)" xlink:href="#bs"/><use transform="matrix(0.03703703703703704,0,0,0.03703703703703704,26.592592592592595,0)" xlink:href="#bt"/><use transform="matrix(0.03703703703703704,0,0,0.03703703703703704,34,0)" xlink:href="#bm"/><use transform="matrix(0.03703703703703704,0,0,0.03703703703703704,36.925925925925924,0)" xlink:href="#br"/><use transform="matrix(0.03703703703703704,0,0,0.03703703703703704,44.33333333333333,0)" xlink:href="#bh"/><use transform="matrix(0.03703703703703704,0,0,0.03703703703703704,51.74074074074073,0)" xlink:href="#bu"/></g><g id="ap"><use transform="matrix(0.03703703703703704,0,0,0.03703703703703704,0,0)" xlink:href="#aX"/><use transform="matrix(0.03703703703703704,0,0,0.03703703703703704,9.592592592592593,0)" xlink:href="#ba"/><use transform="matrix(0.03703703703703704,0,0,0.03703703703703704,19.185185185185187,0)" xlink:href="#co"/></g><path fill="#333" d="M140-251c80 0 125 45 125 126 0 70-33 111-92 124 6 28 34 38 68 31l-1 36C177 83 129 55 120 2 51-6 15-50 15-125c0-81 44-126 125-126zm-1 214c52 0 73-35 73-88 0-50-21-86-72-86-52 0-73 35-73 86s22 88 72 88" id="cw"/><path fill="#333" d="M238-95c0 69-44 99-111 99C63 4 22-25 22-93v-155h51v151c-1 38 19 59 55 60 90 1 49-130 58-211h52v153" id="cx"/><path fill="#333" d="M146-102V0H94v-102L6-248h54l60 105 60-105h54" id="cy"/><g id="aq"><use transform="matrix(0.03703703703703704,0,0,0.03703703703703704,0,0)" xlink:href="#cw"/><use transform="matrix(0.03703703703703704,0,0,0.03703703703703704,10.370370370370372,0)" xlink:href="#cx"/><use transform="matrix(0.03703703703703704,0,0,0.03703703703703704,19.962962962962965,0)" xlink:href="#cq"/><use transform="matrix(0.03703703703703704,0,0,0.03703703703703704,28.851851851851855,0)" xlink:href="#bC"/><use transform="matrix(0.03703703703703704,0,0,0.03703703703703704,37.96296296296297,0)" xlink:href="#cy"/></g><path fill="#333" d="M230 0l2-204L168 0h-37L68-204 70 0H24v-248h70l56 185 57-185h69V0h-46" id="cz"/><g id="ar"><use transform="matrix(0.03703703703703704,0,0,0.03703703703703704,0,0)" xlink:href="#bK"/><use transform="matrix(0.03703703703703704,0,0,0.03703703703703704,9.592592592592593,0)" xlink:href="#bC"/><use transform="matrix(0.03703703703703704,0,0,0.03703703703703704,19.185185185185187,0)" xlink:href="#bC"/><use transform="matrix(0.03703703703703704,0,0,0.03703703703703704,28.77777777777778,0)" xlink:href="#bK"/><use transform="matrix(0.03703703703703704,0,0,0.03703703703703704,38.370370370370374,0)" xlink:href="#bJ"/><use transform="matrix(0.03703703703703704,0,0,0.03703703703703704,47.96296296296297,0)" xlink:href="#bn"/><use transform="matrix(0.03703703703703704,0,0,0.03703703703703704,58.33333333333334,0)" xlink:href="#cq"/><use transform="matrix(0.03703703703703704,0,0,0.03703703703703704,67.22222222222223,0)" xlink:href="#cz"/><use transform="matrix(0.03703703703703704,0,0,0.03703703703703704,78.2962962962963,0)" xlink:href="#cq"/><use transform="matrix(0.03703703703703704,0,0,0.03703703703703704,87.18518518518519,0)" xlink:href="#bJ"/><use transform="matrix(0.03703703703703704,0,0,0.03703703703703704,96.77777777777779,0)" xlink:href="#cp"/></g><path fill="#333" d="M0 4l72-265h28L28 4H0" id="cA"/><g id="as"><use transform="matrix(0.05,0,0,0.05,0,0)" xlink:href="#cc"/><use transform="matrix(0.05,0,0,0.05,5,0)" xlink:href="#bt"/><use transform="matrix(0.05,0,0,0.05,15,0)" xlink:href="#bh"/><use transform="matrix(0.05,0,0,0.05,25,0)" xlink:href="#bj"/><use transform="matrix(0.05,0,0,0.05,34,0)" xlink:href="#bh"/><use transform="matrix(0.05,0,0,0.05,44,0)" xlink:href="#bT"/><use transform="matrix(0.05,0,0,0.05,54,0)" xlink:href="#ci"/><use transform="matrix(0.05,0,0,0.05,64,0)" xlink:href="#bm"/><use transform="matrix(0.05,0,0,0.05,67.95,0)" xlink:href="#bj"/><use transform="matrix(0.05,0,0,0.05,76.95,0)" xlink:href="#cA"/></g><path fill="#333" d="M141 0L90-78 38 0H4l68-98-65-92h35l48 74 47-74h35l-64 92 68 98h-35" id="cB"/><g id="at"><use transform="matrix(0.05,0,0,0.05,0,0)" xlink:href="#cc"/><use transform="matrix(0.05,0,0,0.05,5,0)" xlink:href="#bh"/><use transform="matrix(0.05,0,0,0.05,15,0)" xlink:href="#bz"/><use transform="matrix(0.05,0,0,0.05,25,0)" xlink:href="#cB"/><use transform="matrix(0.05,0,0,0.05,34,0)" xlink:href="#cb"/><use transform="matrix(0.05,0,0,0.05,37.95,0)" xlink:href="#bm"/><use transform="matrix(0.05,0,0,0.05,41.900000000000006,0)" xlink:href="#cA"/></g><g id="au"><use transform="matrix(0.05,0,0,0.05,0,0)" xlink:href="#bu"/><use transform="matrix(0.05,0,0,0.05,10,0)" xlink:href="#bh"/><use transform="matrix(0.05,0,0,0.05,20,0)" xlink:href="#bi"/><use transform="matrix(0.05,0,0,0.05,25,0)" xlink:href="#bh"/></g><g id="av"><use transform="matrix(0.05,0,0,0.05,0,0)" xlink:href="#bj"/><use transform="matrix(0.05,0,0,0.05,9,0)" xlink:href="#bi"/><use transform="matrix(0.05,0,0,0.05,14,0)" xlink:href="#br"/><use transform="matrix(0.05,0,0,0.05,24,0)" xlink:href="#bA"/><use transform="matrix(0.05,0,0,0.05,29.950000000000003,0)" xlink:href="#bh"/><use transform="matrix(0.05,0,0,0.05,39.95,0)" xlink:href="#bR"/><use transform="matrix(0.05,0,0,0.05,49.95,0)" xlink:href="#bk"/></g><g id="aw"><use transform="matrix(0.05,0,0,0.05,0,0)" xlink:href="#bm"/><use transform="matrix(0.05,0,0,0.05,3.95,0)" xlink:href="#br"/><use transform="matrix(0.05,0,0,0.05,13.949999999999998,0)" xlink:href="#bl"/><use transform="matrix(0.05,0,0,0.05,22.95,0)" xlink:href="#bh"/><use transform="matrix(0.05,0,0,0.05,32.95,0)" xlink:href="#bm"/></g><path fill="#333" d="M103-251c84 0 111 97 45 133-19 10-37 24-39 52H78c0-63 77-55 77-114 0-30-21-42-52-43-32 0-53 17-56 46l-32-2c7-45 34-72 88-72zM77 0v-35h34V0H77" id="cC"/><g id="ax"><use transform="matrix(0.05,0,0,0.05,0,0)" xlink:href="#aY"/><use transform="matrix(0.05,0,0,0.05,12,0)" xlink:href="#ci"/><use transform="matrix(0.05,0,0,0.05,22,0)" xlink:href="#bh"/><use transform="matrix(0.05,0,0,0.05,32,0)" xlink:href="#cj"/><use transform="matrix(0.05,0,0,0.05,42,0)" xlink:href="#bk"/><use transform="matrix(0.05,0,0,0.05,52,0)" xlink:href="#cC"/></g><path fill="#333" d="M147-102L127 0H76l19-102-65-146h52l45 107 83-107h57" id="cD"/><path fill="#333" d="M114-194c63-2 87 48 72 110H63c-3 28 1 55 31 54 21-1 32-13 37-29l44 13C160-14 137 4 91 4 41 4 11-22 11-73c0-71 33-119 103-121zm30 77c14-47-50-61-67-22-3 6-6 13-8 22h75" id="cE"/><path fill="#333" d="M144-137c-1-29-70-35-71-2 16 41 103 10 103 80C176 9 79 16 32-9 18-17 9-31 4-48l44-6c3 32 80 36 82 1-15-42-103-11-103-82 0-77 157-79 161-8" id="cF"/><g id="ay"><use transform="matrix(0.05,0,0,0.05,0,0)" xlink:href="#cD"/><use transform="matrix(0.05,0,0,0.05,11.35,0)" xlink:href="#cE"/><use transform="matrix(0.05,0,0,0.05,21.35,0)" xlink:href="#cF"/><use transform="matrix(0.05,0,0,0.05,31.35,0)" xlink:href="#bY"/></g><g id="az"><use transform="matrix(0.05,0,0,0.05,0,0)" xlink:href="#bd"/><use transform="matrix(0.05,0,0,0.05,14.950000000000001,0)" xlink:href="#br"/><use transform="matrix(0.05,0,0,0.05,24.950000000000003,0)" xlink:href="#bj"/><use transform="matrix(0.05,0,0,0.05,33.95,0)" xlink:href="#bh"/><use transform="matrix(0.05,0,0,0.05,43.95,0)" xlink:href="#cb"/><use transform="matrix(0.05,0,0,0.05,47.900000000000006,0)" xlink:href="#bl"/></g><path fill="#333" d="M234-2c-28 10-62 0-77-18C117 19 8 12 13-65c3-43 29-61 60-76-25-40-17-114 47-108 35 3 59 15 59 50 0 44-40 53-71 69 14 26 32 50 51 72 14-21 24-43 30-72l26 8c-9 33-21 57-38 82 13 13 33 22 57 15v23zM97-151c25-10 52-18 56-48-1-18-13-29-33-29-42 0-39 50-23 77zM42-66c-3 51 71 58 98 28-20-24-41-51-56-80-23 10-40 24-42 52" id="cG"/><use transform="matrix(0.05,0,0,0.05,0,0)" xlink:href="#cG" id="aA"/><g id="aB"><use transform="matrix(0.05,0,0,0.05,0,0)" xlink:href="#bl"/><use transform="matrix(0.05,0,0,0.05,9,0)" xlink:href="#bm"/><use transform="matrix(0.05,0,0,0.05,12.949999999999998,0)" xlink:href="#cb"/><use transform="matrix(0.05,0,0,0.05,16.9,0)" xlink:href="#cj"/><use transform="matrix(0.05,0,0,0.05,26.899999999999995,0)" xlink:href="#cj"/><use transform="matrix(0.05,0,0,0.05,36.9,0)" xlink:href="#cb"/><use transform="matrix(0.05,0,0,0.05,40.85,0)" xlink:href="#bt"/><use transform="matrix(0.05,0,0,0.05,50.85,0)" xlink:href="#bR"/></g><g id="aC"><use transform="matrix(0.05,0,0,0.05,0,0)" xlink:href="#bi"/><use transform="matrix(0.05,0,0,0.05,5,0)" xlink:href="#br"/></g><g id="aD"><use transform="matrix(0.05,0,0,0.05,0,0)" xlink:href="#bk"/><use transform="matrix(0.05,0,0,0.05,10,0)" xlink:href="#cB"/><use transform="matrix(0.05,0,0,0.05,19,0)" xlink:href="#bi"/><use transform="matrix(0.05,0,0,0.05,24,0)" xlink:href="#bk"/><use transform="matrix(0.05,0,0,0.05,34,0)" xlink:href="#bt"/><use transform="matrix(0.05,0,0,0.05,44,0)" xlink:href="#bi"/></g><path fill="#333" d="M155 0L90-199 52 0H6l48-248h62l66 201 38-201h46L218 0h-63" id="cH"/><path fill="#333" d="M124-194c51 0 84 22 84 74C207-44 167 4 94 4 43 4 11-23 11-74c0-74 41-120 113-120zM99-30c46 0 58-42 58-86 0-27-11-44-37-44-44 0-55 40-57 84-1 27 10 45 36 46" id="cI"/><path fill="#333" d="M44-154l7-36h35l-8 36H44zM14 0l7-36h35L49 0H14" id="cJ"/><g id="aE"><use transform="matrix(0.05,0,0,0.05,0,0)" xlink:href="#cH"/><use transform="matrix(0.05,0,0,0.05,12.950000000000001,0)" xlink:href="#cI"/><use transform="matrix(0.05,0,0,0.05,23.900000000000002,0)" xlink:href="#cJ"/></g><g id="aF"><use transform="matrix(0.05,0,0,0.05,0,0)" xlink:href="#bd"/><use transform="matrix(0.05,0,0,0.05,14.950000000000001,0)" xlink:href="#br"/><use transform="matrix(0.05,0,0,0.05,24.950000000000003,0)" xlink:href="#bj"/><use transform="matrix(0.05,0,0,0.05,33.95,0)" xlink:href="#bh"/><use transform="matrix(0.05,0,0,0.05,43.95,0)" xlink:href="#cb"/><use transform="matrix(0.05,0,0,0.05,47.900000000000006,0)" xlink:href="#bl"/></g><g id="aG"><use transform="matrix(0.05,0,0,0.05,0,0)" xlink:href="#bu"/><use transform="matrix(0.05,0,0,0.05,10,0)" xlink:href="#br"/><use transform="matrix(0.05,0,0,0.05,20,0)" xlink:href="#bs"/><use transform="matrix(0.05,0,0,0.05,32.95,0)" xlink:href="#bt"/><use transform="matrix(0.05,0,0,0.05,42.95,0)" xlink:href="#bm"/><use transform="matrix(0.05,0,0,0.05,46.900000000000006,0)" xlink:href="#br"/><use transform="matrix(0.05,0,0,0.05,56.900000000000006,0)" xlink:href="#bh"/><use transform="matrix(0.05,0,0,0.05,66.9,0)" xlink:href="#bu"/><use transform="matrix(0.05,0,0,0.05,76.9,0)" xlink:href="#bT"/><use transform="matrix(0.05,0,0,0.05,86.9,0)" xlink:href="#bi"/><use transform="matrix(0.05,0,0,0.05,91.9,0)" xlink:href="#cb"/><use transform="matrix(0.05,0,0,0.05,95.85000000000001,0)" xlink:href="#bm"/><use transform="matrix(0.05,0,0,0.05,99.80000000000001,0)" xlink:href="#bk"/><use transform="matrix(0.05,0,0,0.05,109.80000000000001,0)" xlink:href="#bj"/><use transform="matrix(0.05,0,0,0.05,118.80000000000001,0)" xlink:href="#bE"/><use transform="matrix(0.05,0,0,0.05,124.75,0)" xlink:href="#bI"/></g><g id="aH"><use transform="matrix(0.03703703703703704,0,0,0.03703703703703704,0,0)" xlink:href="#bb"/><use transform="matrix(0.03703703703703704,0,0,0.03703703703703704,9.592592592592593,0)" xlink:href="#bh"/><use transform="matrix(0.03703703703703704,0,0,0.03703703703703704,17,0)" xlink:href="#bi"/><use transform="matrix(0.03703703703703704,0,0,0.03703703703703704,20.703703703703702,0)" xlink:href="#bh"/><use transform="matrix(0.03703703703703704,0,0,0.03703703703703704,28.11111111111111,0)" xlink:href="#bj"/><use transform="matrix(0.03703703703703704,0,0,0.03703703703703704,34.77777777777778,0)" xlink:href="#bk"/><use transform="matrix(0.03703703703703704,0,0,0.03703703703703704,42.18518518518519,0)" xlink:href="#bi"/></g><g id="aI"><use transform="matrix(0.03703703703703704,0,0,0.03703703703703704,0,0)" xlink:href="#bb"/><use transform="matrix(0.03703703703703704,0,0,0.03703703703703704,9.592592592592593,0)" xlink:href="#bk"/><use transform="matrix(0.03703703703703704,0,0,0.03703703703703704,17,0)" xlink:href="#bj"/><use transform="matrix(0.03703703703703704,0,0,0.03703703703703704,23.66666666666667,0)" xlink:href="#bi"/><use transform="matrix(0.03703703703703704,0,0,0.03703703703703704,27.370370370370374,0)" xlink:href="#cb"/><use transform="matrix(0.03703703703703704,0,0,0.03703703703703704,30.2962962962963,0)" xlink:href="#bt"/><use transform="matrix(0.03703703703703704,0,0,0.03703703703703704,37.70370370370371,0)" xlink:href="#bh"/><use transform="matrix(0.03703703703703704,0,0,0.03703703703703704,45.111111111111114,0)" xlink:href="#bi"/><use transform="matrix(0.03703703703703704,0,0,0.03703703703703704,48.81481481481481,0)" xlink:href="#cb"/><use transform="matrix(0.03703703703703704,0,0,0.03703703703703704,51.74074074074074,0)" xlink:href="#br"/><use transform="matrix(0.03703703703703704,0,0,0.03703703703703704,59.14814814814816,0)" xlink:href="#bt"/></g><g id="aJ"><use transform="matrix(0.03703703703703704,0,0,0.03703703703703704,0,0)" xlink:href="#bb"/><use transform="matrix(0.03703703703703704,0,0,0.03703703703703704,9.592592592592593,0)" xlink:href="#cb"/><use transform="matrix(0.03703703703703704,0,0,0.03703703703703704,12.518518518518517,0)" xlink:href="#bA"/></g><g id="aK"><use transform="matrix(0.03703703703703704,0,0,0.03703703703703704,0,0)" xlink:href="#bv"/><use transform="matrix(0.03703703703703704,0,0,0.03703703703703704,9.592592592592593,0)" xlink:href="#bK"/><use transform="matrix(0.03703703703703704,0,0,0.03703703703703704,18.185185185185187,0)" xlink:href="#cp"/><use transform="matrix(0.03703703703703704,0,0,0.03703703703703704,25.2962962962963,0)" xlink:href="#bK"/></g><g id="aL"><use transform="matrix(0.05,0,0,0.05,0,0)" xlink:href="#bV"/><use transform="matrix(0.05,0,0,0.05,14.950000000000001,0)" xlink:href="#bh"/><use transform="matrix(0.05,0,0,0.05,24.950000000000003,0)" xlink:href="#bU"/><use transform="matrix(0.05,0,0,0.05,33.95,0)" xlink:href="#bk"/><use transform="matrix(0.05,0,0,0.05,43.95,0)" xlink:href="#bT"/><use transform="matrix(0.05,0,0,0.05,53.95,0)" xlink:href="#bV"/><use transform="matrix(0.05,0,0,0.05,68.9,0)" xlink:href="#br"/><use transform="matrix(0.05,0,0,0.05,78.9,0)" xlink:href="#bj"/><use transform="matrix(0.05,0,0,0.05,87.9,0)" xlink:href="#bh"/><use transform="matrix(0.05,0,0,0.05,97.9,0)" xlink:href="#cb"/><use transform="matrix(0.05,0,0,0.05,101.85000000000001,0)" xlink:href="#bl"/><use transform="matrix(0.05,0,0,0.05,110.85000000000001,0)" xlink:href="#bE"/><use transform="matrix(0.05,0,0,0.05,116.80000000000001,0)" xlink:href="#bI"/></g><g id="aM"><use transform="matrix(0.03703703703703704,0,0,0.03703703703703704,0,0)" xlink:href="#aY"/><use transform="matrix(0.03703703703703704,0,0,0.03703703703703704,8.88888888888889,0)" xlink:href="#br"/><use transform="matrix(0.03703703703703704,0,0,0.03703703703703704,16.296296296296298,0)" xlink:href="#bz"/><use transform="matrix(0.03703703703703704,0,0,0.03703703703703704,23.703703703703706,0)" xlink:href="#bA"/><use transform="matrix(0.03703703703703704,0,0,0.03703703703703704,28.111111111111114,0)" xlink:href="#bl"/><use transform="matrix(0.03703703703703704,0,0,0.03703703703703704,34.777777777777786,0)" xlink:href="#bk"/></g><g id="aN"><use transform="matrix(0.03703703703703704,0,0,0.03703703703703704,0,0)" xlink:href="#bb"/><use transform="matrix(0.03703703703703704,0,0,0.03703703703703704,9.592592592592593,0)" xlink:href="#cb"/><use transform="matrix(0.03703703703703704,0,0,0.03703703703703704,12.518518518518517,0)" xlink:href="#bA"/></g><g id="aO"><use transform="matrix(0.03703703703703704,0,0,0.03703703703703704,0,0)" xlink:href="#cm"/><use transform="matrix(0.03703703703703704,0,0,0.03703703703703704,8.88888888888889,0)" xlink:href="#bA"/><use transform="matrix(0.03703703703703704,0,0,0.03703703703703704,13.296296296296298,0)" xlink:href="#br"/><use transform="matrix(0.03703703703703704,0,0,0.03703703703703704,20.703703703703706,0)" xlink:href="#bu"/><use transform="matrix(0.03703703703703704,0,0,0.03703703703703704,28.111111111111114,0)" xlink:href="#bz"/><use transform="matrix(0.03703703703703704,0,0,0.03703703703703704,35.51851851851852,0)" xlink:href="#bl"/><use transform="matrix(0.03703703703703704,0,0,0.03703703703703704,42.18518518518519,0)" xlink:href="#bi"/></g><g id="aP"><use transform="matrix(0.03703703703703704,0,0,0.03703703703703704,0,0)" xlink:href="#cm"/><use transform="matrix(0.03703703703703704,0,0,0.03703703703703704,8.88888888888889,0)" xlink:href="#br"/><use transform="matrix(0.03703703703703704,0,0,0.03703703703703704,16.296296296296298,0)" xlink:href="#bm"/><use transform="matrix(0.03703703703703704,0,0,0.03703703703703704,19.222222222222225,0)" xlink:href="#bB"/><use transform="matrix(0.03703703703703704,0,0,0.03703703703703704,25.888888888888893,0)" xlink:href="#bR"/><use transform="matrix(0.03703703703703704,0,0,0.03703703703703704,33.296296296296305,0)" xlink:href="#br"/><use transform="matrix(0.03703703703703704,0,0,0.03703703703703704,40.70370370370371,0)" xlink:href="#bt"/></g><g id="aQ"><use transform="matrix(0.02469135802469136,0,0,0.02469135802469136,0,0)" xlink:href="#bE"/><use transform="matrix(0.02469135802469136,0,0,0.02469135802469136,2.9382716049382718,0)" xlink:href="#br"/><use transform="matrix(0.02469135802469136,0,0,0.02469135802469136,7.8765432098765435,0)" xlink:href="#cj"/><use transform="matrix(0.02469135802469136,0,0,0.02469135802469136,12.814814814814817,0)" xlink:href="#bi"/><use transform="matrix(0.02469135802469136,0,0,0.02469135802469136,15.283950617283953,0)" xlink:href="#cb"/><use transform="matrix(0.02469135802469136,0,0,0.02469135802469136,17.23456790123457,0)" xlink:href="#br"/><use transform="matrix(0.02469135802469136,0,0,0.02469135802469136,22.172839506172842,0)" xlink:href="#bt"/><use transform="matrix(0.02469135802469136,0,0,0.02469135802469136,27.111111111111114,0)" xlink:href="#bh"/><use transform="matrix(0.02469135802469136,0,0,0.02469135802469136,32.04938271604939,0)" xlink:href="#bm"/><use transform="matrix(0.02469135802469136,0,0,0.02469135802469136,34.00000000000001,0)" xlink:href="#bI"/></g><path fill="#333" d="M160-131c35 5 61 23 61 61C221 17 115-2 30 0v-248c76 3 177-17 177 60 0 33-19 50-47 57zm-97-11c50-1 110 9 110-42 0-47-63-36-110-37v79zm0 115c55-2 124 14 124-45 0-56-70-42-124-44v89" id="cK"/><g id="aR"><use transform="matrix(0.03703703703703704,0,0,0.03703703703703704,0,0)" xlink:href="#cK"/><use transform="matrix(0.03703703703703704,0,0,0.03703703703703704,8.88888888888889,0)" xlink:href="#bh"/><use transform="matrix(0.03703703703703704,0,0,0.03703703703703704,16.296296296296298,0)" xlink:href="#bt"/><use transform="matrix(0.03703703703703704,0,0,0.03703703703703704,23.703703703703706,0)" xlink:href="#bu"/></g><g id="aS"><use transform="matrix(0.03703703703703704,0,0,0.03703703703703704,0,0)" xlink:href="#bj"/><use transform="matrix(0.03703703703703704,0,0,0.03703703703703704,6.666666666666668,0)" xlink:href="#bk"/><use transform="matrix(0.03703703703703704,0,0,0.03703703703703704,14.074074074074076,0)" xlink:href="#bm"/><use transform="matrix(0.03703703703703704,0,0,0.03703703703703704,17.000000000000004,0)" xlink:href="#bk"/><use transform="matrix(0.03703703703703704,0,0,0.03703703703703704,24.407407407407412,0)" xlink:href="#bl"/><use transform="matrix(0.03703703703703704,0,0,0.03703703703703704,31.07407407407408,0)" xlink:href="#bi"/><use transform="matrix(0.03703703703703704,0,0,0.03703703703703704,34.777777777777786,0)" xlink:href="#cb"/><use transform="matrix(0.03703703703703704,0,0,0.03703703703703704,37.70370370370371,0)" xlink:href="#br"/><use transform="matrix(0.03703703703703704,0,0,0.03703703703703704,45.111111111111114,0)" xlink:href="#bt"/></g><g id="aT"><use transform="matrix(0.02469135802469136,0,0,0.02469135802469136,0,0)" xlink:href="#bE"/><use transform="matrix(0.02469135802469136,0,0,0.02469135802469136,2.9382716049382718,0)" xlink:href="#br"/><use transform="matrix(0.02469135802469136,0,0,0.02469135802469136,7.8765432098765435,0)" xlink:href="#cj"/><use transform="matrix(0.02469135802469136,0,0,0.02469135802469136,12.814814814814817,0)" xlink:href="#bi"/><use transform="matrix(0.02469135802469136,0,0,0.02469135802469136,15.283950617283953,0)" xlink:href="#cb"/><use transform="matrix(0.02469135802469136,0,0,0.02469135802469136,17.23456790123457,0)" xlink:href="#br"/><use transform="matrix(0.02469135802469136,0,0,0.02469135802469136,22.172839506172842,0)" xlink:href="#bt"/><use transform="matrix(0.02469135802469136,0,0,0.02469135802469136,27.111111111111114,0)" xlink:href="#bh"/><use transform="matrix(0.02469135802469136,0,0,0.02469135802469136,32.04938271604939,0)" xlink:href="#bm"/><use transform="matrix(0.02469135802469136,0,0,0.02469135802469136,34.00000000000001,0)" xlink:href="#bI"/></g><path fill="#333" d="M195 0l-88-114-31 24V0H24v-248h52v113l112-113h60L142-143 257 0h-62" id="cL"/><g id="aU"><use transform="matrix(0.03703703703703704,0,0,0.03703703703703704,0,0)" xlink:href="#cz"/><use transform="matrix(0.03703703703703704,0,0,0.03703703703703704,11.074074074074076,0)" xlink:href="#ce"/><use transform="matrix(0.03703703703703704,0,0,0.03703703703703704,21.44444444444445,0)" xlink:href="#bL"/><use transform="matrix(0.03703703703703704,0,0,0.03703703703703704,30.333333333333336,0)" xlink:href="#bK"/><use transform="matrix(0.03703703703703704,0,0,0.03703703703703704,39.92592592592593,0)" xlink:href="#cg"/><use transform="matrix(0.03703703703703704,0,0,0.03703703703703704,43.62962962962963,0)" xlink:href="#cr"/><use transform="matrix(0.03703703703703704,0,0,0.03703703703703704,53.22222222222223,0)" xlink:href="#cL"/><use transform="matrix(0.03703703703703704,0,0,0.03703703703703704,62.814814814814824,0)" xlink:href="#cg"/><use transform="matrix(0.03703703703703704,0,0,0.03703703703703704,66.51851851851853,0)" xlink:href="#bJ"/><use transform="matrix(0.03703703703703704,0,0,0.03703703703703704,76.11111111111111,0)" xlink:href="#bn"/></g><path fill="#333" d="M4 7l51-268h42L46 7H4" id="cM"/><path fill="#333" d="M110-194c64 0 96 36 96 99 0 64-35 99-97 99-61 0-95-36-95-99 0-62 34-99 96-99zm-1 164c35 0 45-28 45-65 0-40-10-65-43-65-34 0-45 26-45 65 0 36 10 65 43 65" id="cN"/><g id="aV"><use transform="matrix(0.03703703703703704,0,0,0.03703703703703704,0,0)" xlink:href="#bw"/><use transform="matrix(0.03703703703703704,0,0,0.03703703703703704,7.407407407407408,0)" xlink:href="#bX"/><use transform="matrix(0.03703703703703704,0,0,0.03703703703703704,15.51851851851852,0)" xlink:href="#bq"/><use transform="matrix(0.03703703703703704,0,0,0.03703703703703704,23.629629629629633,0)" xlink:href="#cM"/><use transform="matrix(0.03703703703703704,0,0,0.03703703703703704,27.333333333333336,0)" xlink:href="#cN"/><use transform="matrix(0.03703703703703704,0,0,0.03703703703703704,35.44444444444445,0)" xlink:href="#bo"/></g><g id="aW"><use transform="matrix(0.03703703703703704,0,0,0.03703703703703704,0,0)" xlink:href="#cr"/><use transform="matrix(0.03703703703703704,0,0,0.03703703703703704,9.592592592592593,0)" xlink:href="#bC"/><use transform="matrix(0.03703703703703704,0,0,0.03703703703703704,19.185185185185187,0)" xlink:href="#ce"/><use transform="matrix(0.03703703703703704,0,0,0.03703703703703704,29.555555555555554,0)" xlink:href="#ck"/><use transform="matrix(0.03703703703703704,0,0,0.03703703703703704,38.44444444444444,0)" xlink:href="#ck"/><use transform="matrix(0.03703703703703704,0,0,0.03703703703703704,47.33333333333333,0)" xlink:href="#cg"/><use transform="matrix(0.03703703703703704,0,0,0.03703703703703704,51.037037037037024,0)" xlink:href="#bJ"/><use transform="matrix(0.03703703703703704,0,0,0.03703703703703704,60.629629629629626,0)" xlink:href="#bn"/></g></defs></g></svg>